<svg width="1233" height="529.64" overflow="hidden" version="1.1" xmlns="http://www.w3.org/2000/svg">
 <g class="svg-pan-zoom_viewport" transform="scale(.20444)">
  <g transform="translate(-4.7,-12.8)" fill="none" stroke="#6f6f6f" stroke-miterlimit="10" stroke-width=".25">
   <path class="st10" transform="matrix(1 0 0 .90646 -.025 226.14)" d="m2506.1 2269.8v147.6h1027.6v-145.6"/>
   <path class="st10" d="m3551.9 2271.8v162h-1066.6v-159.2"/>
   <path class="st10" d="m2463.4 2271.8v181.1h1105.9v-181.1"/>
   <path class="st10" d="m3590.1 2271.8v196.5h-1144.5v-196.5"/>
   <path class="st10" d="m2425.1 2271.8v215.6h1180.5v-215.6"/>
   <path class="st10" transform="matrix(1.0015 0 0 1.0386 -5.555 -96.612)" d="m3623.8 2276.4v229.2h-1079.1v-13.6"/>
  </g>
  <g transform="translate(-4.7,-12.8)">
   <g fill="#706f6f" stroke="#706f6f">
    <g stroke-miterlimit="10">
     <path class="st3" d="m237.1 61.8v-6.4h-189.8v166.9h6.4v-4.6h38.5v-117.4h140.3v-38.5z"/>
     <path class="st3" d="m100.4 394.2h-8.2v52.4h-38.5v4.6h-6.4v-143.3h6.4v4.6h38.5v52.4h8.2z"/>
     <path class="st3" d="m429 744.8-9.4 0.1v-64.2h-271.5v238.8h-34v4.7h-5v-242.3h-61.8v-145.1h6.4v4.6h38.5v111.5h287.5v-8.2h29.3v8.2h71.2v10.3h-4.8v17.5h-32.5v59.5l-13.9-0.1z"/>
     <path class="st3" d="m114.1 1098.2h-5v-102.1h5v4.7h34v92.7h-34z"/>
     <path class="st3" d="m429 1098.4h-9.4v-105.3h9.4v4.7h13.9v95.9h-13.9z"/>
     <path class="st3" d="m114.1 1272.2h-5v-102.1h5v4.7h34v92.7h-34z"/>
     <path class="st3" d="m429 1281.1h-9.4v-122.2h9.4v4.7h13.9v112.8h-13.9z"/>
     <path class="st3" d="m114.1 1446.2h-5v-102.1h5v4.7h34v92.7h-34z"/>
     <path class="st3" d="m114.1 1620.2h-5v-102.1h5v4.7h34v92.7h-34z"/>
     <path class="st3" d="m429 1579.6h-9.4v-238h9.4v4.7h13.9v228.6h-13.9z"/>
     <path class="st3" d="m148.1 1789.5h-34v4.7h-5v-102.1h5v4.7h34v3.9h271.5v-60.6h9.4v4.7h13.9v50.7h11.5v39.2h-51.3v80.7h-17.4v-80.7h-237.6z"/>
     <path class="st3" d="m47.3 1912.5h61.8v-46.4h5v4.7h34v61.3h237.6v-76.7h17.4v76.7h72.3v22.4h4.8v8.9h-388v111.4h-38.5v4.6h-6.4z"/>
     <path class="st3" d="m98.1 2251.4h-5.9v52.4h-38.5v4.6h-6.4v-143.4h6.4v4.7h38.5v52.4h5.9z"/>
     <path class="st3" d="m237.1 2560.9h-189.8v-166.9h6.4v4.6h38.5v117.4h140.3v38.5h4.6z"/>
     <path class="st3" d="m409 2251.4-0.7-29.3h-28.6v28.5z"/>
     <path class="st3" d="m608.7 2222.1h29.3v29.3h-29.3z"/>
     <path class="st3" d="m322.7 2554.5h4.6v-38.5h134.2v38.5h4.5v6.4h-143.3z"/>
     <path class="st3" d="m690.4 2554.5v-38.5h-134.2v38.5h-4.5v6.4h143.3v-6.4z"/>
     <path class="st3" d="m925.5 2398.6v117.4h-140.3v38.5h-4.6v6.4h189.8v-166.9h-6.4v4.6z"/>
     <path class="st3" d="m1039.9 1898.3h-140.9v-11.4h-29.3l0.5 44.5h-238.2v-18.9h-17.4v18.9h-72.8v23.8h-4.7v8.2h388.4v258.7h-8.2v29.3h8.2v52.4h38.5v4.6h6.4v-122.5h68v-5h-4.7v-28.9h-75.3v-230.3h86.2v-10.2h-4.7z"/>
     <path class="st3" d="m1374.9 2277.4h-4.5v-38.4h-133.5v-311.6h162.3v-10.6h-4.8v-18.5h-284.7v13.2h-4.7v10.2h108.1v230.3h-84.4v28.9h-4.7v5h68v98h182.9z"/>
     <path class="st3" d="m1465.1 2239v38.4h-4.5v6.5h143.3v-6.5h-4.6v-38.4z"/>
     <path class="st3" d="m1689.5 2283.9v-6.5h4.6v-38.4h134.1v38.4h4.6v6.5z"/>
     <path class="st3" d="m2057.2 2277.4v-38.4h-134.2v38.4h-4.6v6.5h143.3v-6.5z"/>
     <path class="st3" d="m2299.2 1927.4h-62.1v265.8h48.9v32.8h4.7v6.6h-25.9v51.3h-117.4v-6.5h4.5v-38.4h58.4v-311.6h-155.5v-10.6h4.7v-18.5h234.9v18.5h4.8z"/>
     <path class="st3" d="m1462.8 1916.8v10.6h527v-10.6h-4.7v-18.5h-517.6v18.5z"/>
     <path class="st3" d="m1749.2 2072.8h23.4v23.4h-23.4z"/>
     <path class="st3" d="m1978.2 2072.8h23.3v23.4h-23.3z" fill="none"/>
     <path d="m2666.7 2170.7v11.1h-1.7v0.3h-33.7l-0.118 11.1h-21.182v32.8h-4.8v6.6h23.2v50.3h100.9l0.063-10.5h0.236v-39.4l28.701-0.4v-11h7.3v-13.2h-7.2v-26.3h-63.6v-11.4z"/>
     <path class="st3" d="m2835.2 2193.2c-0.1 0.2-0.3 0.4-0.4 0.5-1.5 1.7-4.1 1.8-6 0.8v38.1h28.4v50.3h99.4l-0.8-50.3h23.9v-39.4z"/>
     <path class="st3" d="m3183.4 2232.6h18.4v-39.4h-144.9l-0.1 39.4h29.6v50.5h97z"/>
     <path class="st3" d="m3315.2 2232.6v50.3h97v-50.3h23.1v-6.6h-4.7v-32.8h-55.4v-11.4h-23.4v11.4h-71.5v39.4z"/>
     <path class="st3" d="m3664.3 2226h-4.7v-32.8h-42.5v-271.5h63.9v-10.3h-4.7v-13.1h-303.9v-11.4h-17.4v14.2h-8.7v17.4h6v11.5h23.3v-5.9h216.6v269.1h-66.5v32.8h-4.7v6.6h23.1v50.3h97.1v-50.3h23.1z"/>
     <path class="st3" d="m3901.1 1911.4v-13.1h-154.9v13.1h-4.8v10.3h71.5v271.5h-58.2v32.8h-4.8v6.6h25.9v51.3h117.4v-6.5h-4.6v-38.4h-58.3v-317.3h75.5v-10.3z"/>
     <path class="st3" d="m3966.3 1921.7v-10.3h4.7v-13.1h311.1v13.1h4.7v10.3z"/>
     <path class="st3" d="m4038.6 2072.8h23.4v23.4h-23.4z"/>
     <path class="st3" d="m4268 2072.8h23.3v23.4h-23.3z"/>
     <path class="st3" d="m3978.9 2277.4h4.6v-38.4h134.1v38.4h4.6v6.5h-143.3z"/>
     <path class="st3" d="m4351.1 2283.9h-143.3v-6.5h4.6v-38.4h134.1v38.4h4.6z"/>
     <path class="st3" d="m4575.5 2277.4v-38.4h-134.2v38.4h-4.5v6.5h143.2v-6.5z"/>
     <path class="st3" d="m4911.9 2180.9v-28.9h-90.8v-158.3h-17.4v245.3h-133.4v38.4h-4.6v6.5h182.9v-98h68v-5z"/>
     <path class="st3" d="m4647 1898.3h-295.1v13.1h-4.7v10.3h304.5v-10.3h-4.7z"/>
     <path class="st3" d="m4496.5 2072.8h23.4v23.4h-23.4z"/>
     <path class="st3" d="m4725.4 2072.8h23.4v23.4h-23.4z"/>
     <path class="st3" d="m5408.6 1912.5v27.5h-237.7v-53.1h-29.3v11.4h-150v13.1h-4.7v10.3h110.8v230.3h-90.8v28.9h-4.7v5h68v122.5h6.4v-4.6h38.5v-52.4h5.9v-29.3h-5.9v-258.7h362.1v-23.4h-51.2v-27.5z"/>
     <path class="st3" d="m5260 2560.9h-189.8v-166.9h6.4v4.6h38.5v117.4h140.3v38.5h4.6z"/>
     <path class="st3" d="m5484.4 2554.5v-38.5h-134.2v38.5h-4.6v6.4h143.4v-6.4z"/>
     <path class="st3" d="m5713.3 2554.5v-38.5h-134.2v38.5h-4.5v6.4h143.3v-6.4z"/>
     <path class="st3" d="m5948.4 2398.6v117.4h-140.3v38.5h-4.6v6.4h189.8v-166.9h-6.4v4.6z"/>
     <path class="st3" d="m5942.5 2222.1h5.9v-52.4h38.5v-4.7h6.4v143.4h-6.4v-4.6h-38.5v-52.4h-5.9z"/>
     <path class="st3" d="m5586.2 1940h51.3v-27.5h17.4v27.5h237.7v-69.2h33.9v-4.7h4.9v46.4h61.9v166.9h-6.4v-4.6h-38.5v-111.4h-362.2z"/>
     <path class="st3" d="m5660.8 2251.4h-29.2l0.7-29.3h28.5z"/>
     <path class="st3" d="m5431.4 2251.4h-28.8v-29.3h29.3z"/>
     <path class="st3" d="m5707.8 1704.2h184.8v-7.4h33.9v-4.7h4.9v102.1h-4.9v-4.7h-33.9v-62h-185.1"/>
     <path class="st3" d="m5926.5 1518.1h4.9v102.1h-4.9v-4.7h-33.9v-92.7h33.9z"/>
     <path class="st3" d="m5926.5 1344.1h4.9v102.1h-4.9v-4.7h-33.9v-92.7h33.9z"/>
     <path class="st3" d="m5616 1340.2h12.4v256.4h-12.4v-4.7h-18.3v-247h18.3z"/>
     <path class="st3" d="m5926.5 1170.1h4.9v102.1h-4.9v-4.7h-33.9v-92.7h33.9z"/>
     <path class="st3" d="m5616 996.8h12.4v283h-12.4v-4.8h-18.3v-273.5h18.3z"/>
     <path class="st3" d="m5926.5 996.1h4.9v102.1h-4.9v-4.7h-33.9v-92.7h33.9z"/>
     <path class="st3" d="m5926.5 822.1h4.9v102.1h-4.9v-4.7h-33.9v-92.7h33.9z"/>
     <path class="st3" d="m5993.3 705.1-61.9-1.4v46.5h-4.9v-4.7h-33.9v-69.2h-264.2v57.7h-12.4v-4.8h-18.3v-52.9h-8.7v-23.4h359.4v-111.5h38.5v-4.6h6.4z"/>
     <path class="st3" d="m5616 931.6h-18.3v-132.5h18.3v-4.7h12.4v142h-12.4z"/>
     <path class="st3" d="m5625.6 359h41.2v41.2h-41.2z"/>
     <path class="st3" d="m5993.3 451.2h-6.4v-4.6h-38.5v-46.4h-8.2v-41.2h8.2v-46.5h38.5v-4.6h6.4z"/>
     <path class="st3" d="m5803.5 55.4h189.8v166.9h-6.4v-4.6h-38.5v-117.4h-140.3v-38.5h-4.6z"/>
     <path class="st3" d="m5579.1 61.8v38.5h134.2v-38.5h4.6v-6.4h-143.3v6.4z"/>
     <path class="st3" d="m5489 61.8v-6.4h-143.4v6.4h4.6v38.5h134.2v-38.5z"/>
     <path class="st3" d="m5255.4 100.3v-38.5h4.6v-6.4h-189.8v166.9h6.4v-4.6h38.5v-117.4z"/>
     <path class="st3" d="m5123.3 400.2h-8.2v46.4h-38.5v4.6h-6.4v-143.3h6.4v4.6h38.5v46.5h8.2z"/>
     <path class="st3" d="m5396.7 359h41.2v41.2h-41.2z"/>
     <path class="st3" d="m5137.1 703.7h-66.9v-166.9h6.4v4.6h38.5v111.5h359.4v23.4h-8.7v174.1h-4.9v-4.7h-18.4v-169.4h-271.6v65.1h-28.8v4.7h-5z"/>
     <path class="st3" d="m5142.1 988.5h-5v-170.5h5v4.7h28.8v82.5h271.6v-11.4h18.4v-4.8h4.9v70.1h-18.4v4.7h-11.6v-41.2h-264.9v61.2h-28.8z"/>
     <path class="st3" d="m5142.1 1165.7h-5v-91.5h5v4.7h28.8v82.1h-28.8z"/>
     <path class="st3" d="m5447.4 1332.8h-11.6v-308.5h11.6v4.7h18.4v299.1h-18.4z"/>
     <path class="st3" d="m5142.1 1342.9h-5v-91.5h5v4.7h28.8v82.1h-28.8z"/>
     <path class="st3" d="m5142.1 1522.9h-5v-94.4h5v4.8h28.8v84.8h-28.8z"/>
     <path class="st3" d="m5435.8 1392.8h11.6v4.7h18.4v298h8.7v32h-48.5v27.5h-17.4v-27.5h-237.7v50.4h-29.3v-11.4h-20.5v-18.4h-4.7v-9.9h37.1v-40.7h12.5v-4.7h4.9v4.5h264.9z"/>
     <path class="st3" d="m5153.5 1648.2v-25.5h-125.5v-28.9h-4.7v-5h113.8v-7.7h5v4.7h28.8v67.2h-4.9v-4.8z"/>
     <path class="st3" d="m4946.7 1622.7v-28.9h4.7v-5h-113.8v-151.1h-76.2v5h4.7v28.9h33v266.6h-204v9.9h4.7v18.4h472.5v-18.4h4.7v-9.9h-255.9v-115.5"/>
     <path class="st3" d="m4592.1 1442.7v28.9h92.7v-28.9h4.7v-5h-102.1v5z"/>
     <path class="st3" d="m4418.1 1442.7v28.9h92.7v-28.9h4.7v-5h-102.1v5z"/>
     <path class="st3" d="m4239.4 1437.7h102.1v5h-4.7v28.9h-92.7v-28.9h-4.7z"/>
     <path class="st3" d="m4065.4 1437.7h102.1v5h-4.7v28.9h-92.7v-28.9h-4.7z"/>
     <path class="st3" d="m3891.4 1437.7h102.1v5h-4.7v28.9h-30.5v266.6h238.9v9.9h-4.8v18.4h-308.8v-18.4h-4.8v-9.9h55.5v-266.6h-38.2v-28.9h-4.7z"/>
     <path class="st3" d="m4533.8 1748.1v-9.9h-275.4v9.9h4.8v18.4h265.9v-18.4z"/>
     <path class="st3" d="m3813.7 1766.5v-18.4h4.7v-9.9h-588.4v-266.6h62.8v-28.9h4.7v-5h-51v-73.2h-112.7v4.4h-4.7v5h4.7v25.8h78.8v338.5h-5.9v28.3h148.3v8.7h17.4v-8.7z"/>
     <path class="st3" d="m3369.4 1437.7h102.1v5h-4.7v28.9h-92.6v-28.9h-4.8z"/>
     <path class="st3" d="m3645.5 1442.7v-5h-102.1v5h4.7v28.9h92.7v-28.9z"/>
     <path class="st3" d="m3819.5 1442.7v-5h-102.1v5h4.8v28.9h92.6v-28.9z"/>
     <path class="st3" d="m2917.1 1766.5v-23.2l-23.2-0.2-0.1 23.4z"/>
     <path class="st3" d="m3123.5 1743.1h23.4v23.4h-23.4z"/>
     <path class="st3" d="m3061 1364.5h14.3v4.4h4.7v5h-4.7v25.8h-14.3v-25.8h-4.7v-5h4.7z"/>
     <path class="st3" d="m2960.6 1368.9h4.7v-4.4h14.3v4.4h4.8v5h-4.8v25.8h-14.3v-25.8h-4.7z"/>
     <path class="st3" d="m2906.8 1399.7v-25.8h4.8v-5h-4.8v-4.4h-112.7v73.2h-51v5h4.7v28.9h62.8l-0.1 263.8h-273.6l0.2 12.7h4.7v18.4h126.4v8.7h17.4v-8.7h148.3v-23.4h-5.9v-343.4z"/>
     <path class="st3" d="m2573.8 1442.7v28.9h92.7v-28.9h4.7v-5h-102.1v5z"/>
     <path class="st3" d="m2497.2 1442.7h-4.7v28.9h-92.7v-28.9h-4.7v-5h102.1z"/>
     <path class="st3" d="m2323.2 1437.7v5h-4.7v28.9h-92.7v-28.9h-4.7v-5z"/>
     <path class="st3" d="m2608.7 1595.7h23.3v23.4h-23.3z"/>
     <path class="st3" d="m2434.7 1595.7h23.4v23.4h-23.4z"/>
     <path class="st3" d="m2260.7 1595.7h23.4v23.4h-23.4z"/>
     <path class="st3" d="m2473.4 1766.5h-250.1v-18.4h-4.7v-12.7h259.5v12.7h-4.7z"/>
     <path class="st3" d="m2114.1 1735.4h43.9l0.1 12.7h-4.7v18.4h-110.5v-18.4h-4.7l-0.2-12.7 52.8-0.2 0.1-263.8-39.1 0.2v-28.9h-4.7v-5h102.1v5h-4.7v28.9h-30.2z"/>
     <path class="st3" d="m1877.8 1442.7h-4.7v-5h102.1v5h-4.7v28.9h-92.7z"/>
     <path class="st3" d="m1699.1 1437.7h102.1v5h-4.7v28.9h-92.7v-28.9h-4.7z"/>
     <path class="st3" d="m1525.1 1437.7h102.1v5h-4.7v28.9h-92.7v-28.9h-4.7z"/>
     <path class="st3" d="m1351.1 1437.7h102.1v5h-4.7v28.9h-92.7v-28.9h-4.7z"/>
     <path class="st3" d="m983.5 1735.4h236v-112.7h-125.6v-28.9h-4.7v-5h113.8v-151.1h76.2v5h-4.7v28.9h-37.6v263.8h59.5v12.7h-4.7v18.4h-303.4v-18.4h-4.8z"/>
     <path class="st3" d="m1618.8 1748.1v-12.7h-262v12.7h4.8v18.4h252.4v-18.4z"/>
     <path class="st3" d="m1807.4 1735.4h-128.2v12.7h4.7v18.4h118.8v-18.4h4.7z"/>
     <path class="st3" d="m1977.7 1735.4h-109.9v12.7h4.8v18.4h100.4v-18.4h4.7z"/>
     <path class="st3" d="m1012.6 1622.7v-28.9h4.7v-5h-113.7v-7.7h-5v4.7h-28.9v114.9h-146.7v8.5h4.8v26.2h141.9v42.5h34.3v-11.4h41.2v-18.4h4.7v-12.7h-57.8v-112.7z"/>
     <path class="st3" d="m632 1755v-19.6h54.5v-26.2h4.7v-8.8h-86.8v-237h-11.2v4.7h-18.4v227.4h-11.4v39.9h51.2v19.6z"/>
     <path class="st3" d="m898.6 1421.7h5v101.2h-5v-4.8h-28.9v-91.7h28.9z"/>
     <path class="st3" d="m898.6 1244.5h5v105.3h-5v-4.7h-28.9v-95.9h28.9z"/>
     <path class="st3" d="m898.6 1067.3h5v105.3h-5v-4.7h-28.9v-95.9h28.9z"/>
     <path class="st3" d="m593.2 1404h-18.4l3.2-511.8 15.2-0.1v-5h11.2v18.1h265.3v-228.9h-265.3v175.1h-11l-0.2-7.3h-18.4v-167.8h-33v-13.6h-4.7v-9.8h71.6v-8.2h29.3v8.2h287.5v-111.5h38.5v-4.6h6.4v166.9h-66.8v291.7h-5v-4.7h-28.9v-62.1h-265.3v480.1h-11.2z"/>
     <path class="st3" d="m917.3 364.9h8.2v-52.4h38.5v-4.6h6.4v143.3h-6.4v-4.6h-38.5v-52.4h-8.2z"/>
     <path class="st3" d="m780.6 55.4h189.8v166.9h-6.4v-4.6h-38.5v-117.4h-140.3v-38.5h-4.6z"/>
     <path class="st3" d="m556.2 61.8h-4.5v-6.4h143.3v6.4h-4.6v38.5h-52.4v8.2h-29.3v-8.2h-52.5z"/>
     <path class="st3" d="m608.7 364.9h29.3v29.3h-29.3z"/>
     <path class="st3" d="m379.7 364.9h29.3v29.3h-29.3z"/>
     <path class="st3" d="m409 108.5v-8.2h52.5v-38.5h4.5v-6.4h-143.3v6.4h4.6v38.5h52.4v8.2z"/>
     <path class="st3" d="m4923.8 1911.4h6v10.3h-108.7v33h-17.4v-33h-91.3v-10.3h4.4v-13.1h207z"/>
     <path class="st3" d="m4116.5 1698.1h17.3v45.1h-17.3z"/>
     <path class="st3" d="m4116.5 1471.6h17.3v184.5h-17.3z"/>
     <path class="st3" d="m431.2 934.2h-11.6v-130.5h11.6v7h11.7v115.5h-11.7z"/>
     <ellipse class="st3" cx="3366.4" cy="1988.6" rx="13.3" ry="13.4"/>
     <ellipse class="st3" cx="3366.4" cy="2123.6" rx="13.3" ry="13.4"/>
     <path class="st3" d="m5669.8 1727.7h-84.8v-31.7h13v-35.8h17.4v-4.7h13l0.4 48.5h41"/>
     <path class="st3" d="m454.4 1735.4v-39.9l4.4 0.6h104.6v39.3z"/>
     <path class="st3" d="m442.9 1341.6v-65.2h-24.6v75.7h24.6z"/>
     <path class="st3" d="m492.8 681.9h83.2v-29h-115.2v27.8z"/>
     <path class="st3" d="m1663.8 1911.8 13.9 13.1"/>
     <path class="st9" d="m2439.9 1933.5h12l16.5-0.3v-4.6h205v4.3h28.4v-8.3h4.3v-27.9h-7.9v-12.5h-20.7v12.8l-307.5-0.3v15.8h-7.7v7.6h3.9v8.3h73.5z" stroke-width=".25"/>
    </g>
    <path d="m2490.1 2182.1v13.5c0-1.3-1-2.3-2.3-2.3h-79.6c-1.3 0-2.3 1-2.3 2.3v22.1c0 1.3-1 2.3-2.3 2.3s-2.3 1-2.3 2.3v8c0 1.3 1 2.3 2.3 2.3h20.5c1.1 0 2.1-0.8 2.3-2v-0.1c-0.1-1 0.9-1.801 2.1-1.801h59.3c1.3 0 2.3-0.999 2.3-2.299v30c-2.7 2.7-64.9 0-64.9 0v16.1h81v-16.1h-0.1v-34.8h8.099v-10.7h-4.7v-28.8h-19.4z"/>
    <path d="m2899.6 2161.7v20.4h-68.9v27.4h-5.4v12.1h33.5v50.8h97.1v-50.5h27.7v-11.5h-3.7v-28.3h-3.6v-20.4h-19.8v20.4h-36.1v-20.4zm-22.1 55.9h62.8v41.5h-62.8z"/>
    <path class="st9" d="m2900 2109.5v27.8h20.4v-7.4h35.8v7.4s20.7 0.7 20.1 0c-0.7-0.7 0-7.4 0-7.4h11.7v-20.4z" stroke-miterlimit="10" stroke-width=".25"/>
    <path class="st9" d="m3048.5 2109.5v20.4h11.7v7.7h20.4v-6.7h35.8v6.7h20.1s3-28.1 0-28.1z" stroke-miterlimit="10" stroke-width=".25"/>
    <path d="m3060.6 2163v20.4h-4.4v27.4h-3v12.4h31.8v2.6c1.6 0.7 2.8 2.1 2.8 4.4v44.2h92.9v-51.1h28.8v-13.1h-5v-27.4h-68.3v-19.8h-19.2v19.1h-36v-19.1zm40.5 55.5 15.9 0.2h48v40h-63.9z"/>
    <g stroke-miterlimit="10">
     <g stroke-width=".25">
      <path class="st9" d="m3405.2 2210.9v-28.8h-35.5v-12h-27.7v12.4l-64.6-0.3v28.8h-3.7v11h32.1v5.8c0.4 0.4 0.7 0.8 1 1.4 2.6-3.1 8.9-2 8.9 3.1v42.2h86.1v-52.5h8.4v-11h-5z"/>
      <path class="st9" d="m3485.6 2221.7v-28.8h-19.8v29.1h-3.7v11h28.5v-11.3z"/>
      <path class="st9" d="m2362.3 1928.6v-9.9h4.8l1.5 9.7-6.3 0.2"/>
     </g>
     <path class="st5" d="m3321.5 1891.7h4.8c6 0 10.9 5.2 10.9 11.7v1.9c0 6.5-4.9 11.7-10.9 11.7h-4.8c-6 0-10.9-5.2-10.9-11.7v-1.9c0-6.5 4.9-11.7 10.9-11.7z"/>
     <path class="st5" d="m3147.5 1893.5h4.8c6 0 10.9 5.4 10.9 12v2c0 6.7-4.9 12-10.9 12h-4.8c-6 0-10.9-5.4-10.9-12v-2c0-6.6 4.9-12 10.9-12z"/>
     <path class="st5" d="m3117.8 1893.5h4.8c6 0 10.9 5.4 10.9 12v2c0 6.7-4.9 12-10.9 12h-4.8c-6 0-10.9-5.4-10.9-12v-2c0.1-6.6 4.9-12 10.9-12z"/>
     <path class="st5" d="m2923.3 1893.5h4.8c6 0 10.9 5.4 10.9 12v2c0 6.7-4.9 12-10.9 12h-4.8c-6 0-10.9-5.4-10.9-12v-2c0-6.6 4.9-12 10.9-12z"/>
     <path class="st5" d="m2893.2 1893.5h4.8c6 0 10.9 5.4 10.9 12v2c0 6.7-4.9 12-10.9 12h-4.8c-6 0-10.9-5.4-10.9-12v-2c0-6.6 4.9-12 10.9-12z"/>
     <path class="st5" d="m2721.3 1893.5h4.8c6 0 10.9 5.4 10.9 12v2c0 6.7-4.9 12-10.9 12h-4.8c-6 0-10.9-5.4-10.9-12v-2c0-6.6 4.9-12 10.9-12z"/>
     <path class="st5" d="m2682.3 2109.1h4.8c6 0 10.9 5.4 10.9 12v2c0 6.7-4.9 12-10.9 12h-4.8c-6 0-10.9-5.4-10.9-12v-2c0-6.6 4.9-12 10.9-12z"/>
     <path class="st5" d="m2681.7 1975.9h4.8c6 0 10.9 5.4 11.2 11.8v2c-0.4 6.9-5.2 12.3-11.2 12.3h-4.8c-6 0-10.9-5.4-10.9-12v-2c0-6.7 4.9-12.1 10.9-12.1z"/>
     <path class="st5" d="m2682.3 1975.4h4.8c6 0.5 10.9 5.9 10.9 12.5v2c0 6.7-4.9 12-10.9 12h-4.8c-6 0-10.9-5.4-11.5-11.8v-2c0.6-6.8 5.5-12.2 11.5-12.7z"/>
    </g>
   </g>
   <g stroke="#9d9d9d" stroke-miterlimit="10">
    <g fill="none">
     <path class="st13" d="m1481.8 2236v-220.6h142.3v-7.9h-142.3v-6.5h-8v235"/>
     <path class="st13" d="m1747.4 1935.3v70.6h-73.2v11.4h73.2v218.7"/>
     <path d="m1476.4 1927.6v20.485h8.635v-20.461z" stroke-width="1.156"/>
     <g stroke-width="1.5">
      <path class="st1" d="m148.1 1388.7h271.5v14h-271.5z"/>
      <path class="st1" d="m148.1 1870.8h169.7v11h-169.7z"/>
      <path class="st1" d="m358.8 1870.8h26.9v11h-26.9z"/>
      <path class="st1" d="m2077.8 2193.2v-163.1h12.6v173.3h-33.2v35.6h-12.4v-45.8z"/>
     </g>
     <path class="st1" d="m2078.3 1928.4h11.364v60.364h-11.364z" stroke-width="1.386"/>
     <g stroke-width="1.5">
      <path class="st1" d="m3352.3 1972.7h9.5v209.1h-9.5z"/>
      <path class="st1" d="m5451.3 2233.7v62.5h13v-226.5h33v-8.5h-33.5v-8.5h-12.5v169.4h-330.3v11.6z"/>
      <path class="st1" d="m5452.3 1963.4h12v26.8h-12z"/>
      <path class="st1" d="m5452.3 2362.2h11.5v153.8h-11.5z"/>
      <path class="st1" d="m5607.3 2381.2v-129.8h24.3v-29.3h-24.8v-258.7h-10.5v98.3h-33v7h33v312.5z"/>
      <path class="st1" d="m5660.8 2227.2h21.9v9.5h-21.9z"/>
      <path class="st1" d="m5721.8 2227.2h220.7v9.5h-220.7z"/>
      <path class="st1" d="m5597.4 2447.2h9.3v68.7h-9.3z"/>
      <path class="st1" d="m5595.8 1867v33.2h17.5v7.5h-15.9v32.3h-11.2v-73z"/>
      <path class="st1" d="m5598.6 1725.6v33.2h17.5v7.5h-15.9v32.3h-11.2v-73z"/>
      <path class="st1" d="m5654.8 1939.9v-33.2h-17.5v-7.5h15.8v-32.3h11.2v73z"/>
      <path class="st1" d="m5657.2 1798.4v-33.1h-17.5v-7.5h15.9v-32.3h11.2v72.9z"/>
     </g>
     <path class="st2" d="m5628.4 1410.7h264.1v15.5h-264.1z"/>
     <path class="st2" d="m5628.4 1221.1h264.1v16.1h-264.1z"/>
     <path class="st2" d="m5628.4 1028.7h37.8v11.5h-37.8z"/>
     <path class="st2" d="m5706.8 1028.7h185.8v11.5h-185.8z"/>
     <path class="st2" d="m5628.4 869.7v16.5"/>
     <path class="st2" d="m5892.6 886.2v-16.5"/>
     <path class="st2" d="m5589 511.2h17.3v141.7h-17.3z"/>
     <path class="st2" d="m5591.3 100.3h15v143h-15z"/>
     <path class="st2" d="m5549.8 674.7h-5.5v143.3h53.4v8.7h-62.4v-151.5h-2v-12h16.5z"/>
     <path class="st2" d="m5577.8 663.2h11.2v13.1h-11.2z"/>
     <path class="st2" d="m5170.9 1078.9h264.8v14.8h-264.8z"/>
     <path class="st2" d="m5170.9 1248.2h191.8v10.5h-191.8z"/>
     <path class="st2" d="m5403.3 1248.2h32.5v10.5h-32.5z"/>
     <path class="st2" d="m5435.8 1472.7h-267l2.1-11.5h264.9z"/>
     <path class="st2" d="m5185.8 1602.1h-17l2.1-13.3h14.9z"/>
     <path class="st2" d="m5362.3 1602.1h-60v9.6h-9v-9.6h-66.8v-13.3h209.3v13.3h-66v9.6h-7.5z"/>
     <path class="st2" d="m5372.8 1663h-7.8v-7.8h-61.2v6h-9.5v-23h9.5v8.5h61v-8.5h8v8.5h63v9h-63z"/>
     <path class="st2" d="m5292.8 1688.7h7.5v8.5h-7.5z"/>
     <path class="st2" d="m5363.5 1688.7h6.3v8.5h-6.3z"/>
     <path class="st2" d="m4889.8 1666.2v-45.5l9 2v43.5z"/>
     <path class="st2" d="m4889.8 1705.2h9v37.5h-9z"/>
     <path class="st2" d="m4459.8 1716.7h16.5v26.4h-16.5z"/>
     <path class="st2" d="m4459.8 1471.6h16.5v203.6h-16.5z"/>
     <path class="st2" d="m3579.8 1471.6h10.5v150.1h-10.5z"/>
     <path class="st2" d="m3579.8 1664.2h10.5v78.9h-10.5z"/>
     <path class="st2" d="m2592.9 1471.6h9.9v201.6h-9.9z"/>
     <path class="st2" d="m2592.9 1712.2h9.9v23.2h-9.9z"/>
     <path class="st2" d="m2438.3 1577.7h12.5v157.7h-12.5z"/>
     <path class="st2" d="m2438.3 1471.2h12.5v67.5h-12.5z"/>
     <path class="st2" d="m2256.3 1471.6v140.6h-51.5v10h52.5v113.2h11.5v-264.2z"/>
     <path class="st2" d="m2107 1611.7h57.3v10.5h-57.3z"/>
     <path class="st2" d="m1756.4 1735.4v-264.2l11.4 0.4v263.8z"/>
     <path class="st2" d="m1568.3 1471.2h10.5v182h-10.5z"/>
     <path class="st2" d="m1568.3 1694.2h10.5v41.2h-10.5z"/>
     <path class="st2" d="m604.4 1242.2h9.3v11.5h-9.3z"/>
     <path class="st2" d="m604.4 1113.7h57.8v12.5h-57.8z"/>
     <path class="st2" d="m604.4 1028.3h67.3v8.4h-67.3z"/>
     <path class="st2" d="m703.8 1113.7v12.5h55v-12.5h-38.5v-185.1h-17.5v99.7h-5v8.4h12v77z"/>
     <path class="st2" d="m799.8 1113.7h69.9v12.5h-69.9z"/>
    </g>
    <g fill="#fff">
     <path class="st8" d="m2471.3 1982.7h199.5"/>
     <path class="st8" d="m2473.2 1996.1h199.2"/>
     <path class="st8" d="m2678 2109.1v-48.7h13.4v48.7"/>
     <path class="st8" d="m2691.4 2135.2v37.6"/>
     <path class="st8" d="m2678 2135.2v37.6"/>
     <path class="st8" d="m2741.1 1925.4 0.1 78.8h-12.9v8.8h26.3l-0.1-87.6z"/>
     <path class="st8" d="m3353.1 1927.9v49.5"/>
     <path class="st8" d="m3360.7 1932v46.1"/>
    </g>
    <path class="st2" d="m2678 2001.7v17.6h13.4v-5.8h15.5v-7.9h-15.5v-5.5" fill="none"/>
   </g>
   <g stroke="#ff5fbe" stroke-miterlimit="10" stroke-width="1.5">
    <g fill="none">
     <path class="st12" d="m258.1 860.6-110-0.5 1 95.3v64.5h269.2v-159.3z"/>
     <path class="st12" d="m149.1 1036.7h269.1v352.3h-269.1z"/>
     <path class="st12" d="m149.1 1402.7h269.1v296.8h-269.1z"/>
     <path class="st12" d="m149.1 1735.8h235.2v135h-235.2z"/>
     <path class="st12" d="m924.3 2514.5v-261.8h-8.4v-31.8h8.4v-256.2h-830.8v256.3h5.9v31.7h-5.9v261.8z"/>
     <path class="st12" d="m959.6 1922.8h252.2v227.9h-252.2z"/>
     <path class="st12" d="m1760.9 2097.5v140.2h283.9v-44.5h33v-264.6h-316.9v143h13v25.9z"/>
     <path class="st12" d="m2090.4 1928.6h118.7v309.1h-151.9v-34.3h33.2z"/>
     <path class="st12" d="m2238.5 1928.6h201.4v263.3h-201.4z"/>
     <path class="st12" d="m3361.8 1972.7v-41.7h15v-5.8h214.2v266.8h-214.2v-12.4h-15v-42s1.1 0.5 4.6 0.5c4.9 0 14.5-3.1 14.3-15.9-0.3-11.5-14.3-13.1-14.3-13.1l-4.6 0.9v-107.7s2 0.9 4.6 0.9c2.6 0.1 14.6-3.9 14.6-14.8 0-11.5-14.6-14.3-14.6-14.3l-4.6 0.5z"/>
     <path class="st12" d="m3811.6 2192.1v-269.1l-193.2-0.9v270z"/>
     <path class="st12" d="m4822.3 1922.9h274.2v228h-274.2z"/>
     <path class="st12" d="m5401.1 2220.5h31.8v1.6h18.4v-169.4h1.1v-88.1h-335.9l-0.2 256.3h6.5v1.2h278.3z"/>
     <path class="st12" d="m5432.9 2252.7h-31.6v-19h-278.9v17.7h-6.1v263.3h336v-218.5h-1v-62.5h-18.4z"/>
     <path class="st12" d="m5464.3 2069.7-0.5 445h133.6l-1.1-446h-99v1z"/>
     <path class="st12" d="m5941.3 2227.2h-279v-6.5h-30.7v1.4h-24.8v-257.5h340.3v256.4h-5.8z"/>
     <path class="st12" d="m5942.5 2252.5v-15.8h-280.4v16h-31.6v-1.3h-23.2l-0.5 263.3h340.3v-262.2z"/>
     <path class="st12" d="m5664.3 1938.7h227.1v-209.8h-224.6v69.5h-2.5z"/>
     <path class="st12" d="m5629.6 1426.2h261.8v276.6h-261.8z"/>
    </g>
    <g fill="none">
     <path class="st12" d="m5629.6 1237.2h261.8v173.5h-261.8z"/>
     <path class="st12" d="m5629.6 1040.2h261.8v180.9h-261.8z"/>
     <path class="st12" d="m5629.6 677.6h261.8v351.2h-261.8z"/>
     <path class="st12" d="m5172.1 923.5h262.6v155.4h-262.6z"/>
     <path class="st12" d="m5172.1 1093.7h262.7v154.5h-262.7z"/>
    </g>
    <g fill="none">
     <path class="st12" d="m5172.1 1258.7h262.7v202.5h-262.7z"/>
     <path class="st12" d="m5172.1 1472.7h262.7v116.1h-262.7z"/>
     <path class="st12" d="m5294.3 1661.2h9.5v-6h61.2v7.8h7.8v-7.3h62v40.6h-65v-7.6h-6.3v7.6h-63.2v-7.6h-7.5v7.6h-120.7v-94.2h121.2v9.6h9v-9.6h60v9.6h7.5v-9.6h65v44.6h-62v-8.5h-8v8.5h-61v-8.5h-9.5z"/>
     <path class="st12" d="m4491.7 1472.7h307.4v264.3h-307.4z"/>
     <path class="st12" d="m3959.3 1472.7h156v264.3h-156z"/>
     <path class="st12" d="m3590.3 1472.7h342.7v264.3h-342.7z"/>
     <path class="st12" d="m3230 1472.7h349.7v264.3h-349.7z"/>
     <path class="st12" d="m2602.8 1472.8h206.5v261.6h-206.5z"/>
     <path class="st12" d="m2450.8 1472.8h142.1v261.6h-142.1v-114.3h8.5v-25.6h-8.5z"/>
     <path class="st12" d="m2268.8 1472.8h169.5v121.7h-4.9v25.7h4.9v114.2h-169.5v-114.2h16.5v-25.7h-16.5z"/>
     <path class="st12" d="m2115.1 1622.2h142.2v112.2h-142.2z"/>
     <path class="st12" d="m1767.8 1472.7h323.1v261.7h-323.1z"/>
     <path class="st12" d="m1578.8 1472.7h177.7v261.7h-177.7z"/>
     <path class="st12" d="m1238 1472.7h330.2v261.7h-330.2z"/>
     <path class="st12" d="m893.3 1624h325.1v110.4h-325.1z"/>
     <path class="st12" d="m868.5 1700.7v-196h-264.3l0.7 196z"/>
    </g>
    <g fill="none">
     <path class="st12" d="m604.1 1297.1h264.4v195.1h-264.4z"/>
     <path class="st12" d="m654.2 1126.2h214.3v161.2h-214.3z"/>
     <path class="st12" d="m720.3 929.7h148.3v184h-148.3z"/>
    </g>
    <g fill="none">
     <path class="st12" d="m4483.8 1472.7v195h-78v69.3h-272v-264.3z"/>
     <path class="st12" d="m4889.8 1738.2v-33h9v33h254.7v-115.5h-254.7v43.5h-9v-43.5h-68.7v115.5z"/>
     <path class="st12" d="m5123.3 359v41.2h-8.2v252.7h278v-9.4h10v-534.8h-8.7v-8.4h-279.3v212.2h235.1v11.6h-235.1v34.9z"/>
     <path class="st12" d="m5637.1 110.7v430.7h-229.3v-432.7h30.1v-8.4h191.2v10.4z"/>
     <path class="st12" d="m5948.4 206.7h-306v152.3h24.4v41.2h-24.4v238.5h24v14.2h282v-252.7h-8.2v-3.5h-217.1v-13.3h217.1v-24.4h8.2v-258.7h-278.6v10.4h-27.4v89.4h306"/>
     <path class="st12" d="m4802.4 2237.7v-314.8h-273.6v316.1z"/>
     <path class="st12" d="m4291.4 2237.7v-316h223.4v151.1h5.1v23.3h-5.1v141.6z"/>
     <path class="st12" d="m4286.8 2097.6v141.4s-199 8.3-199 0v-316.1l199-1.2v151.1"/>
     <path class="st12" d="m4048.3 1922.9h-216.9v314.8h248.4v-314.8z"/>
     <path class="st12" d="m148.1 850.7s271.5 2 271.5 0v-170h-271.5z"/>
     <path class="st12" d="m3352.3 2170v-251.5h-214.4v264.3h204.1v-12.8z"/>
     <path class="st11" d="m2471.3 1996.1h197.3"/>
    </g>
    <path class="st11" d="m2665.5 1996.1h6.7c2.5 4.8 6.3 5.3 6.3 5.3v4.7c0 0.4-0.7 100.5-0.7 100.5v2.5s-6.6 5.9-6.6 13.1c0 9 6.9 12.4 6.9 12.4v7.3" fill="transparent"/>
    <g fill="none">
     <g fill="none">
      <path class="st11" d="m2678 2137.8v32.9h-11.6v11.4h-206v-186h13.9"/>
      <path class="st11" d="m2461.3 1982.7v-48.8h7.8v-5.8h204.2"/>
      <path class="st11" d="m2701.8 1925.4h39.7l-0.3 78.8h-12.9v8.8h-21.2l0.1-7.5h-16.5"/>
     </g>
     <path class="st11" d="m2702.5 1925.6v7.5l-28.7 0.1v-5.9"/>
    </g>
    <path class="st11" d="m2460.4 1982.7h211.6c0.6 0.1 1.2-6.7 12.1-7.3 13.4-0.7 14 12.5 14 12.5s1.2 7.3-7.1 13.3" fill="transparent"/>
    <path class="st11" d="m1484.2 2000.3v-71h263.2v78.2h-263.2z" fill="none"/>
    <path class="st11" d="m1237.6 1927.4h236.2v313.1h-236.2z" fill="none"/>
    <g fill="none">
     <path class="st11" d="m1482.7 2238.9v-223.5h264.7v223.5h-264.7" fill="none"/>
     <path class="st11" d="m2691.2 2006.2v-5.5"/>
     <path class="st11" d="m1482.7 2233.2v-6.4"/>
    </g>
   </g>
   <g stroke-miterlimit="10">
    <g stroke="#706f6f">
     <g fill="none">
      <path class="st7" d="m423.8 744.9 24.1 24.1"/>
      <path class="st7" d="m425.2 803.7 24.1-24.1"/>
      <path class="st7" d="m576 874.8 24.1-24.1"/>
      <path class="st7" d="m424.1 934.2 24.1 24.1"/>
      <path class="st7" d="m424.1 993.1 24.1-24.1"/>
      <path class="st7" d="m424.1 1098.4 24.1 24.1"/>
      <path class="st7" d="m424.1 1158.9 24.1-24.1"/>
      <path class="st7" d="m423.6 1579.6 24.1 24.1"/>
      <path class="st7" d="m423.6 1640 24.1-24.1"/>
      <path class="st7" d="m417.5 1832.3-24.1 24.1"/>
      <path class="st7" d="m317.8 1876.2 24.1-24.1"/>
      <path class="st7" d="m480.2 1960 24.1-24.1"/>
      <path class="st7" d="m537.1 1960-24.1-24.1"/>
      <path class="st7" d="m1044.6 1916.8 24.1-24.1"/>
      <path class="st7" d="m1105 1916.8-24.1-24.1"/>
      <path class="st7" d="m1399.2 1922.4 24.1-24.1"/>
      <path class="st7" d="m1462.8 1922.4-24.1-24.1"/>
      <path class="st7" d="m1989.8 1922.4 24.2-24.1"/>
      <path class="st7" d="m2054.8 1922.4-24.1-24.1"/>
      <path class="st7" d="m2084.4 2030.1-24.1-24.1"/>
      <path class="st7" d="m2299.2 1922.4 24.1-24.1"/>
      <path class="st7" d="m2369.5 1923-24.1-24.1"/>
      <path class="st7" d="m2524.6 1922.4 24.1-24.1"/>
      <path class="st7" d="m2578.1 1922.4-24.1-24.1"/>
      <path class="st7" d="m3201.8 1920.2 24.1-24.1"/>
      <path class="st7" d="m3255.8 1920.2-24.1-24.1"/>
      <path class="st7" d="m3357 1972.7-24.1-24.1"/>
      <path class="st7" d="m3681 1917.1 24.1-24.1"/>
      <path class="st7" d="m3741.4 1917.1-24.1-24.1"/>
      <path class="st7" d="m3904.9 1917.1 24.1-24.1"/>
      <path class="st7" d="m3966.3 1917.1-24.1-24.1"/>
      <path class="st7" d="m4286.8 1917.1 24.1-24.1"/>
      <path class="st7" d="m4347.2 1917.1-24.1-24.1"/>
      <path class="st7" d="m4651.7 1917.1 24.1-24.1"/>
      <path class="st7" d="m4712.4 1917.1-24.1-24.1"/>
      <path class="st7" d="m4812.8 1993.7-24.1-24.1"/>
      <path class="st7" d="m4929.8 1917.1 24.1-24.1"/>
      <path class="st7" d="m4986.9 1917.1-24.1-24.1"/>
      <path class="st7" d="m5458.3 1990.2 24.1 24.1"/>
      <path class="st7" d="m5458.3 2052.7 24.1-24.1"/>
      <path class="st7" d="m5497.3 2064.8 24.1-24.1"/>
      <path class="st7" d="m5563.3 2064.8-24.1-24.1"/>
      <path class="st7" d="m5458 2296.2 24.1 24.1"/>
      <path class="st7" d="m5458 2362.3 24.1-24.1"/>
      <path class="st7" d="m5602.1 2447.3-24.1-24.1"/>
      <path class="st7" d="m5602.1 2381.2-24.1 24.1"/>
      <path class="st7" d="m5697.7 2256.1 24.1-24.1"/>
      <path class="st7" d="m5591.3 1867-24.1-24.1"/>
      <path class="st7" d="m5593.5 1798.6-24.1 24.1"/>
      <path class="st7" d="m5659.3 1867-24.1-24.1"/>
      <path class="st7" d="m5661.4 1798.4-24.1 24.1"/>
      <path class="st7" d="m5637.4 1903.5-24.1-24.1"/>
      <path class="st7" d="m5639.5 1762-24.1 24.1"/>
      <path class="st7" d="m5707.5 1714-24.1 24.1"/>
      <path class="st7" d="m5623.3 1655.5-24.1-24.1"/>
      <path class="st7" d="m5623.3 1596.6-24.1 24.1"/>
      <path class="st7" d="m5622.8 1340.2-24.1-24.1"/>
      <path class="st7" d="m5622.8 1279.8-24.1 24.1"/>
      <path class="st7" d="m5622.8 996.8-24.1-24.1"/>
      <path class="st7" d="m5622.8 936.4-24.1 24.1"/>
      <path class="st7" d="m5706.5 1034.5-24.1-24.1"/>
      <path class="st7" d="m5623.3 794.4-24.1-24.1"/>
      <path class="st7" d="m5623.3 734.3-24.1 24.1"/>
      <path class="st7" d="m5577.5 670.5-24.1-24.1"/>
      <path class="st7" d="m5533.3 668.8-24.1 24.1"/>
      <path class="st7" d="m5474.5 668.8 24.1 24.1"/>
      <path class="st7" d="m5462.4 850.4 24.2 24.1"/>
      <path class="st7" d="m5441.9 963 24.1 24.1"/>
      <path class="st7" d="m5441.9 1024.3 24.1-24.1"/>
      <path class="st7" d="m5441.7 1332.8 24.1 24.1"/>
      <path class="st7" d="m5441.7 1392.8 24.1-24.1"/>
      <path class="st7" d="m5362.8 1252.8 24.1 24.1"/>
      <path class="st7" d="m5272.4 1664.6 24.1 24.1"/>
      <path class="st7" d="m5202.4 1620.3 24.1-24.1"/>
      <path class="st7" d="m5342.5 1664.6 24.1 24.1"/>
      <path class="st7" d="m5272.4 1635.8 24.1-24.1"/>
      <path class="st7" d="m5342.5 1635.8 24.1-24.1"/>
      <path class="st7" d="m4898.8 1666.2 24.1 24.1"/>
      <path class="st7" d="m5144.4 1678.3 24.4-25.3"/>
      <path class="st7" d="m5077 1741.5 24.1 24.1"/>
      <path class="st7" d="m4468 1674.4 24.1 24.1"/>
      <path class="st7" d="m4595.1 1742.4-24.1 24.1"/>
      <path class="st7" d="m4533.8 1742.4 24.1 24.1"/>
      <path class="st7" d="m4258.4 1743.1-24.1 24.1"/>
      <path class="st7" d="m4197.2 1743.1 24.1 24.1"/>
      <path class="st7" d="m4125.1 1656.3 24.1 24.1"/>
      <path class="st7" d="m3878.8 1742.4-24.1 24.1"/>
      <path class="st7" d="m3818.4 1742.4 24.1 24.1"/>
      <path class="st7" d="m3585 1621.7 24.1 24.1"/>
      <path class="st7" d="m2536.9 1742.4-24.1 24.1"/>
      <path class="st7" d="m2478.1 1742.4 24.1 24.1"/>
      <path class="st7" d="m2597.8 1673.2-24.1 24.1"/>
      <path class="st7" d="m2444.5 1538.7 24.1 24.1"/>
      <path class="st7" d="m2218.6 1742.4-24.1 24.1"/>
      <path class="st7" d="m2158.1 1740.4 24.1 24.1"/>
      <path class="st7" d="m2164.3 1617.5 24.1 24.1"/>
      <path class="st7" d="m2038 1742.4-24.1 24.1"/>
      <path class="st7" d="m1977.7 1742.4 24.1 24.1"/>
      <path class="st7" d="m1867.9 1742.4-24.1 24.1"/>
      <path class="st7" d="m1807.4 1742.4 24.1 24.1"/>
      <path class="st7" d="m1679.2 1742.4-24.1 24.1"/>
      <path class="st7" d="m1618.8 1742.4 24.1 24.1"/>
      <path class="st7" d="m1573.5 1653.2 24.1 24.1"/>
      <path class="st7" d="m1356.8 1742.4-24.1 24.1"/>
      <path class="st7" d="m1296.4 1742.4 24.1 24.1"/>
      <path class="st7" d="m983.5 1743-24.1 24.1"/>
      <path class="st7" d="m723 1703.6-24.1 24.1"/>
      <path class="st7" d="m599.1 1463.4-24.1-24.1"/>
      <path class="st7" d="m599.1 1408.7-24.1 24.1"/>
      <path class="st7" d="m628.6 1216 24.1 24.1"/>
      <path class="st7" d="m799.8 1120-24.1 24.1"/>
      <path class="st7" d="m673.7 1056.6 24.1-24.1"/>
      <path class="st7" d="m703.5 1120-24.1 24.1"/>
     </g>
     <g fill="#706f6f">
      <path class="st3" d="m1499.9 1964.1-17.2-18.1"/>
      <path class="st3" d="m1499.9 1985.5-17.2 16.4"/>
      <path class="st3" d="m1638.8 1994-17.2 15.8"/>
      <path class="st3" d="m1658 1992.9 19.1 15.8"/>
      <path class="st3" d="m2712.4 2028.5 16.8-14.6"/>
      <path class="st3" d="m2780.2 2235.5-18.9-20.6"/>
      <path class="st3" d="m2815.1 2233c5.5-4.6 11.1-9.3 16.6-13.9"/>
      <path class="st3" d="m2946.8 2146.6 20.4 19.6"/>
      <path class="st3" d="m3098.7 2146.6-18.5 20.9"/>
      <path class="st3" d="m3040.4 2235.5 15.7-13.9"/>
      <path class="st3" d="m2999.7 2235.5-16.9-16.6"/>
      <path class="st3" d="m3009.4 2148.6-22.9-20.6"/>
      <path class="st3" d="m3032.5 2148.6 18.9-20.6"/>
      <path class="st3" d="m3228.6 2243-29.1-26.1"/>
      <path class="st3" d="m3253 2242 27.1-27.4"/>
     </g>
    </g>
    <g stroke="#9c9c9c">
     <path class="st4" d="m803.5 677.2h-132.9" fill="none"/>
     <path class="st14" d="m803.5 676v71.9" fill="#716f6f"/>
     <path class="st7" d="m788.1 747.9v-70.7l-114.5 70.7" fill="none"/>
     <g fill="#716f6f">
      <path class="st14" d="m776.1 684.6v63.3"/>
      <path class="st14" d="m762.4 692.8v55.1"/>
      <path class="st14" d="m750.7 700.3v47.6"/>
      <path class="st14" d="m737.7 708.3v39.6"/>
      <path class="st14" d="m726.8 715v32.9"/>
      <path class="st14" d="m713 723.2v24.7"/>
      <path class="st14" d="m700 731.1v16.8"/>
      <path class="st14" d="m870.6 747.9h-67.3"/>
      <path class="st14" d="m803.6 758.8h68.7"/>
      <path class="st14" d="m803.3 771.5h67.3"/>
      <path class="st14" d="m803.6 784.9h68.7"/>
      <path class="st14" d="m872.3 796.7h-68.7"/>
      <path class="st14" d="m803.6 809.7h68.7"/>
      <path class="st14" d="m803.6 821.6h66.9"/>
      <path class="st14" d="m801.7 831.3h68.8"/>
      <path class="st14" d="m788.5 831.5-0.2 74.1"/>
      <path class="st14" d="m775.9 831.5-0.3 76"/>
      <path class="st14" d="m762.5 831.3-0.3 74.2"/>
      <path class="st14" d="m750.4 905.5 0.2-74.1"/>
      <path class="st14" d="m737.7 831.4-0.3 74"/>
      <path class="st14" d="m725 831.4-0.2 73.9"/>
      <path class="st14" d="m711.6 831.3-0.2 74"/>
      <path class="st14" d="m700 831.5-0.2 74"/>
      <path class="st14" d="m687.3 831.5-0.2 76"/>
      <path class="st14" d="m671.9 831.3-0.2 74"/>
     </g>
     <path class="st15" d="m671.8 680.6v150.8l131.8 0.1v-83.6h-131.8" fill="none" stroke-width="2"/>
     <path class="st14" d="m803.6 831.5v73.7" fill="#716f6f"/>
     <g fill="none">
      <path class="st15" d="m671.8 677.2v4.5" stroke-width="2"/>
      <path class="st4" d="m2903.5 1482.1h-74.5v13.8h74.5v13.7h-74.5v13.7h74.5v13.8h-74.5v13.7h74.5v13.8h-74.5v13.7h74.5l-15 13.7h-59.5v13.7h44.8l-15 13.8h-29.8v13.8h14.9l-14.9 13.7"/>
      <path class="st4" d="m2944.7 1482.1h151.1v13.8h-151.1v13.7h151.1v13.7h-151.1v13.8h151.1v13.7h-151.1v13.8h151.1v13.7h-151.1v13.7h151.1v13.7h-151.1v13.8h151.1v13.8h-151.1"/>
      <path class="st4" d="m3197.5 1633.3h14.1v-13.8h-29.2l-15.1-13.8h44.3v-13.7h-59.4l-15.2-13.7h74.6v-13.7h-74.6v-13.8h74.6v-13.7h-74.6v-13.8h74.6v-13.7h-74.6v-13.7h74.6v-13.8h-74.6"/>
      <path class="st5" d="m3137 1578.3-6.8-6.3v-89.9h-27.5v155.8h-6.9v-162.7h41.2z"/>
      <path class="st6" d="m3211.6 1482.1v163.9l-14.1-12.7-60.5-55"/>
      <path class="st6" d="m2903.5 1578.3-74.5 68.7v-164.9"/>
      <path class="st5" d="m2910.4 1572v-89.9h27.5v155.8h6.8v-162.7h-41.2v103.1z"/>
      <path class="st4" d="m5257.9 744.9v-61l-13.7-6.8v67.8z"/>
      <path class="st4" d="m5257.9 744.9h13.8v-53.4l-13.8-7.6z"/>
      <path class="st4" d="m5271.7 744.9h13.7v-45.7l-13.7-7.7z"/>
      <path class="st4" d="m5285.4 744.9h13.7v-38.1l-13.7-7.6z"/>
      <path class="st4" d="m5299.1 744.9h13.8v-30.5l-13.8-7.6z"/>
      <path class="st4" d="m5312.9 744.9h13.7v-22.9l-13.7-7.6z"/>
      <path class="st4" d="m5326.6 744.9h13.8v-15.2l-13.8-7.7z"/>
      <path class="st4" d="m5340.4 744.9h13.7v-7.6l-13.7-7.6z"/>
      <path class="st4" d="m5354.1 737.3v7.6h13.7z"/>
      <path class="st4" d="m5244.2 677.1h8.8l114.8 63v4.8z"/>
      <path class="st4" d="m5170.9 749.5h69.1v13.7h-69.1z"/>
      <path class="st4" d="m5170.9 763.3h69.1v13.7h-69.1z"/>
      <path class="st4" d="m5170.9 777h69.1v13.7h-69.1z"/>
      <path class="st4" d="m5170.9 790.8h69.1v13.7h-69.1z"/>
      <path class="st4" d="m5170.9 804.5h69.1v13.7h-69.1z"/>
      <path class="st4" d="m5170.9 818.2h69.1v13.7h-69.1z"/>
      <path class="st4" d="m5354.1 836.5h13.7v67.8h-13.7z"/>
      <path class="st4" d="m5340.4 836.5h13.7v67.8h-13.7z"/>
      <path class="st4" d="m5326.6 836.5h13.7v67.8h-13.7z"/>
      <path class="st4" d="m5312.9 836.5h13.8v67.8h-13.8z"/>
      <path class="st4" d="m5299.1 836.5h13.8v67.8h-13.8z"/>
      <path class="st4" d="m5285.4 836.5h13.7v67.8h-13.7z"/>
      <path class="st4" d="m5271.7 836.5h13.7v67.8h-13.7z"/>
      <path class="st4" d="m5257.9 836.5h13.8v67.8h-13.8z"/>
      <path class="st4" d="m5244.2 836.5h13.7v67.8h-13.7z"/>
      <path class="st5" d="m5239.6 744.9h132.8v91.6h-132.8z"/>
      <path class="st5" d="m5244.2 749.5h123.6v82.4h-123.6z"/>
     </g>
    </g>
    <g fill="#fff" stroke="#828181">
     <path class="st0" d="m5137.1 746.1h5v71.9h-5z"/>
     <path class="st0" d="m5142.1 741.4h28.9v81.3h-28.9z"/>
     <path class="st0" d="m232.5 61.8h94.8v38.5h-94.8z"/>
     <path class="st0" d="m237.1 55.4h85.6v6.4h-85.6z"/>
     <path class="st0" d="m225.7 18.8v36.6h-5.5v-42.1h119.5v42.1h-5.5v-36.6z"/>
     <path class="st0" d="m466 55.4h85.6v6.4h-85.6z"/>
     <path class="st0" d="m461.5 61.8h94.8v38.5h-94.8z"/>
     <path class="st0" d="m449.1 13.3v42.1h5.5v-36.6h108.5v36.6h5.5v-42.1z"/>
     <path class="st0" d="m797.6 55.4v-42.1h-119.6v42.1h5.5v-36.6h108.6v36.6z"/>
     <path class="st0" d="m695 55.4h85.6v6.4h-85.6z"/>
     <path class="st0" d="m690.4 61.8h94.8v38.5h-94.8z"/>
     <path class="st0" d="m970.4 324.9h42.1v-119.5h-42.1v5.4h36.6v108.6h-36.6z"/>
     <path class="st0" d="m964 222.3h6.4v85.6h-6.4z"/>
     <path class="st0" d="m925.5 217.7h38.5v94.8h-38.5z"/>
     <path class="st0" d="m970.4 553.8h42.1v-119.5h-42.1v5.5h36.6v108.5h-36.6z"/>
     <path class="st0" d="m964 451.2h6.4v85.6h-6.4z"/>
     <path class="st0" d="m925.5 446.6h38.5v94.8h-38.5z"/>
     <path class="st0" d="m47.3 434.3h-42.1v119.5h42.1v-5.5h-36.6v-108.5h36.6z"/>
     <path class="st0" d="m47.3 451.2h6.4v85.6h-6.4z"/>
     <path class="st0" d="m53.7 446.6h38.5v94.8h-38.5z"/>
     <path class="st0" d="m47.3 205.3h-42.1v119.6h42.1v-5.5h-36.6v-108.6h36.6z"/>
     <path class="st0" d="m47.3 222.3h6.4v85.6h-6.4z"/>
     <path class="st0" d="m53.7 217.7h38.5v94.8h-38.5z"/>
     <path class="st0" d="m114.1 919.5h34v81.3h-34z"/>
     <path class="st0" d="m109.1 924.2h5v71.9h-5z"/>
     <path class="st0" d="m72.5 1014.4v-108.5h36.6v-5.5h-42.1v119.5h42.1v-5.5z"/>
     <path class="st0" d="m114.1 1093.5h34v81.3h-34z"/>
     <path class="st0" d="m109.1 1098.2h5v71.9h-5z"/>
     <path class="st0" d="m72.5 1188.4v-108.5h36.6v-5.5h-42.1v119.5h42.1v-5.5z"/>
     <path class="st0" d="m114.1 1267.5h34v81.3h-34z"/>
     <path class="st0" d="m109.1 1272.2h5v71.9h-5z"/>
     <path class="st0" d="m72.5 1362.4v-108.5h36.6v-5.5h-42.1v119.5h42.1v-5.5z"/>
     <path class="st0" d="m114.1 1441.5h34v81.3h-34z"/>
     <path class="st0" d="m109.1 1446.2h5v71.9h-5z"/>
     <path class="st0" d="m72.5 1536.4v-108.5h36.6v-5.5h-42.1v119.5h42.1v-5.5z"/>
     <path class="st0" d="m114.1 1615.5h34v81.3h-34z"/>
     <path class="st0" d="m109.1 1620.2h5v71.9h-5z"/>
     <path class="st0" d="m72.5 1710.4v-108.5h36.6v-5.5h-42.1v119.5h42.1v-5.5z"/>
     <path class="st0" d="m114.1 1789.5h34v81.3h-34z"/>
     <path class="st0" d="m109.1 1794.2h5v71.9h-5z"/>
     <path class="st0" d="m72.5 1884.4v-108.5h36.6v-5.5h-42.1v119.5h42.1v-5.5z"/>
     <path class="st0" d="m47.3 2062.5h-42.1v119.5h42.1v-5.5h-36.6v-108.5h36.6z"/>
     <path class="st0" d="m47.3 2079.4h6.4v85.6h-6.4z"/>
     <path class="st0" d="m53.7 2074.8h38.5v94.8h-38.5z"/>
     <path class="st0" d="m47.3 2291.4h-42.1v119.5h42.1v-5.5h-36.6v-108.5h36.6z"/>
     <path class="st0" d="m47.3 2308.4h6.4v85.6h-6.4z"/>
     <path class="st0" d="m53.7 2303.8h38.5v94.8h-38.5z"/>
     <path class="st0" d="m220.2 2560.8v42.2h119.5v-42.2h-5.5v36.7h-108.5v-36.7z"/>
     <path class="st0" d="m237.1 2554.4h85.6v6.4h-85.6z"/>
     <path class="st0" d="m232.5 2516h94.8v38.5h-94.8z"/>
     <path class="st0" d="m449.1 2560.8v42.2h119.5v-42.2h-5.5v36.7h-108.5v-36.7z"/>
     <path class="st0" d="m466.1 2554.4h85.6v6.4h-85.6z"/>
     <path class="st0" d="m461.5 2516h94.8v38.5h-94.8z"/>
     <path class="st0" d="m678 2560.8v42.2h119.6v-42.2h-5.5v36.7h-108.5v-36.7z"/>
     <path class="st0" d="m695 2554.4h85.6v6.4h-85.6z"/>
     <path class="st0" d="m690.4 2516h94.8v38.5h-94.8z"/>
     <path class="st0" d="m970.4 2410.9h42.1v-119.5h-42.1v5.5h36.6v108.5h-36.6z"/>
     <path class="st0" d="m964 2308.4h6.4v85.6h-6.4z"/>
     <path class="st0" d="m925.5 2303.8h38.5v94.8h-38.5z"/>
     <path class="st0" d="m1033.7 2152h95v28.9h-95z"/>
     <path class="st0" d="m1038.4 2180.9h85.6v4.9h-85.6z"/>
     <path class="st0" d="m1021.4 2228v-42.1h5.5v36.6h108.6v-36.6h5.5v42.1z"/>
     <path class="st0" d="m1370.4 2239h94.8v38.5h-94.8z"/>
     <path class="st0" d="m1374.9 2277.4h85.6v6.4h-85.6z"/>
     <path class="st0" d="m1358 2326v-42.2h5.5v36.7h108.5v-36.7h5.5v42.2z"/>
     <path class="st0" d="m1599.3 2239h94.8v38.5h-94.8z"/>
     <path class="st0" d="m1603.9 2277.4h85.6v6.4h-85.6z"/>
     <path class="st0" d="m1586.9 2326v-42.2h5.5v36.7h108.5v-36.7h5.5v42.2z"/>
     <path class="st0" d="m1828.2 2239h94.8v38.5h-94.8z"/>
     <path class="st0" d="m1832.8 2277.4h85.6v6.4h-85.6z"/>
     <path class="st0" d="m1815.9 2326v-42.2h5.5v36.7h108.5v-36.7h5.5v42.2z"/>
     <path class="st0" d="m2057.2 2239h94.8v38.5h-94.8z"/>
     <path class="st0" d="m2061.7 2277.4h85.6v6.4h-85.6z"/>
     <path class="st0" d="m2044.8 2326v-42.2h5.5v36.7h108.5v-36.7h5.5v42.2z"/>
     <path class="st0" d="m2286 2193.2h95.1v32.8h-95.1z"/>
     <path class="st0" d="m2290.7 2226h85.6v6.6h-85.6z"/>
     <path class="st0" d="m2514.2 2193.2h96.3v32.8h-96.3z"/>
     <path class="st0" d="m2520.1 2226h85.6v6.6h-85.6z"/>
     <path class="st0" d="m3430.6 2193.2h95.1v32.8h-95.1z"/>
     <path class="st0" d="m3435.4 2226h85.6v6.6h-85.6z"/>
     <path class="st0" d="m3659.6 2193.2h95.1v32.8h-95.1z"/>
     <path class="st0" d="m3664.3 2226h85.6v6.6h-85.6z"/>
     <path class="st0" d="m3888.6 2239h94.8v38.5h-94.8z"/>
     <path class="st0" d="m3893.2 2277.4h85.7v6.4h-85.7z"/>
     <path class="st0" d="m3876.3 2326v-42.2h5.5v36.7h108.5v-36.7h5.5v42.2z"/>
     <path class="st0" d="m4117.6 2239h94.8v38.5h-94.8z"/>
     <path class="st0" d="m4122.2 2277.4h85.7v6.4h-85.7z"/>
     <path class="st0" d="m4105.2 2326v-42.2h5.6v36.7h108.4v-36.7h5.5v42.2z"/>
     <path class="st0" d="m4346.5 2239h94.8v38.5h-94.8z"/>
     <path class="st0" d="m4351.1 2277.4h85.7v6.4h-85.7z"/>
     <path class="st0" d="m4334.2 2326v-42.1h5.5v36.6h108.5v-36.6h5.5v42.1z"/>
     <path class="st0" d="m4575.5 2239h94.8v38.5h-94.8z"/>
     <path class="st0" d="m4580.1 2277.4h85.7v6.4h-85.7z"/>
     <path class="st0" d="m4563.1 2326v-42.2h5.5v36.7h108.5v-36.7h5.5v42.2z"/>
     <path class="st0" d="m4911.9 2152h95v28.9h-95z"/>
     <path class="st0" d="m4916.6 2180.9h85.6v4.9h-85.6z"/>
     <path class="st0" d="m4899.7 2228v-42.1h5.4v36.6h108.5v-36.6h5.5v42.1z"/>
     <path class="st0" d="m5076.6 2303.8h38.4v94.7h-38.4z"/>
     <path class="st0" d="m5070.2 2308.4h6.4v85.6h-6.4z"/>
     <path class="st0" d="m5033.6 2405.4v-108.5h36.6v-5.5h-42.1v119.5h42.1v-5.5z"/>
     <path class="st0" d="m5255.4 2516h94.8v38.5h-94.8z"/>
     <path class="st0" d="m5243 2603v-42.1h5.6v36.6h108.5v-36.6h5.5v42.1z"/>
     <path class="st0" d="m5260 2554.5v6.4h85.6v-6.4z"/>
     <path class="st0" d="m5489 2554.5h85.6v6.4h-85.6z"/>
     <path class="st0" d="m5484.4 2516h94.8v38.5h-94.8z"/>
     <path class="st0" d="m5591.5 2603h-119.5v-42.1h5.5v36.6h108.5v-36.6h5.5z"/>
     <path class="st0" d="m5717.9 2554.4h85.6v6.4h-85.6z"/>
     <path class="st0" d="m5713.3 2516h94.8v38.5h-94.8z"/>
     <path class="st0" d="m5820.4 2603h-119.5v-42.2h5.5v36.7h108.5v-36.7h5.5z"/>
     <path class="st0" d="m5986.9 2308.4h6.4v85.6h-6.4z"/>
     <path class="st0" d="m5948.4 2303.8h38.5v94.8h-38.5z"/>
     <path class="st0" d="m6035.4 2291.4v119.5h-42.1v-5.5h36.6v-108.5h-36.6v-5.5z"/>
     <path class="st0" d="m5986.9 2079.4h6.4v85.6h-6.4z"/>
     <path class="st0" d="m5948.4 2074.9h38.5v94.8h-38.5z"/>
     <path class="st0" d="m6035.4 2062.5v119.5h-42.1v-5.5h36.6v-108.5h-36.6v-5.5z"/>
     <path class="st0" d="m5926.5 1794.2h5v71.9h-5z"/>
     <path class="st0" d="m5892.6 1789.5h33.9v81.3h-33.9z"/>
     <path class="st0" d="m5973.6 1889.9v-119.5h-42.2v5.5h36.7v108.5h-36.7v5.5z"/>
     <path class="st0" d="m5926.5 1620.2h5v71.9h-5z"/>
     <path class="st0" d="m5892.6 1615.5h33.9v81.3h-33.9z"/>
     <path class="st0" d="m5926.5 1446.2h4.9v71.9h-4.9z"/>
     <path class="st0" d="m5892.6 1441.5h33.9v81.3h-33.9z"/>
     <path class="st0" d="m5926.5 1272.2h5v71.9h-5z"/>
     <path class="st0" d="m5892.6 1267.5h33.9v81.3h-33.9z"/>
     <path class="st0" d="m5926.5 1098.2h5v71.9h-5z"/>
     <path class="st0" d="m5892.6 1093.5h33.9v81.3h-33.9z"/>
     <path class="st0" d="m5926.5 924.2h5v71.9h-5z"/>
     <path class="st0" d="m5892.6 919.5h33.9v81.3h-33.9z"/>
     <path class="st0" d="m5926.5 750.2h5v71.9h-5z"/>
     <path class="st0" d="m5892.6 745.5h33.9v81.3h-33.9z"/>
     <path class="st0" d="m5986.9 451.2h6.4v85.6h-6.4z"/>
     <path class="st0" d="m5948.4 446.6h38.5v94.8h-38.5z"/>
     <path class="st0" d="m5986.9 222.3h6.4v85.6h-6.4z"/>
     <path class="st0" d="m5948.4 217.7h38.5v94.8h-38.5z"/>
     <path class="st0" d="m5717.9 55.4h85.7v6.4h-85.7z"/>
     <path class="st0" d="m5713.3 61.8h94.8v38.5h-94.8z"/>
     <path class="st0" d="m5488.9 55.4h85.7v6.4h-85.7z"/>
     <path class="st0" d="m5484.4 61.8h94.8v38.5h-94.8z"/>
     <path class="st0" d="m5260 55.4h85.7v6.4h-85.7z"/>
     <path class="st0" d="m5255.4 61.8h94.8v38.5h-94.8z"/>
     <path class="st0" d="m5070.2 222.3h6.4v85.7h-6.4z"/>
     <path class="st0" d="m5076.6 217.7h38.5v94.8h-38.5z"/>
     <path class="st0" d="m5070 451.2h6.4v85.7h-6.4z"/>
     <path class="st0" d="m5076.4 446.6h38.5v94.8h-38.5z"/>
     <path class="st0" d="m5094.9 722.3h42.2v5.5h-36.7v108.5h36.7v5.5h-42.2z"/>
     <path class="st0" d="m5137.1 988.5h5v85.6h-5z"/>
     <path class="st0" d="m5142.1 983.8h28.9v95.1h-28.9z"/>
     <path class="st0" d="m5137.1 1165.7h5v85.6h-5z"/>
     <path class="st0" d="m5142.1 1161h28.9v95.1h-28.9z"/>
     <path class="st0" d="m5137.1 1342.9h5v85.6h-5z"/>
     <path class="st0" d="m5142.1 1338.2h28.9v95.1h-28.9z"/>
     <path class="st0" d="m5137.1 1522.9h5v58.2h-5z"/>
     <path class="st0" d="m5142.1 1518.1h28.9v67.6h-28.9z"/>
     <path class="st0" d="m4951.4 1588.8h71.9v4.9h-71.9z"/>
     <path class="st0" d="m4946.7 1593.8h81.4v28.9h-81.4z"/>
     <path class="st0" d="m4689.5 1437.7h71.9v4.9h-71.9z"/>
     <path class="st0" d="m4684.8 1442.7h81.3v28.9h-81.3z"/>
     <path class="st0" d="m4665.7 1395.6v42.1h5.5v-36.6h108.5v36.6h5.5v-42.1z"/>
     <path class="st0" d="m4515.5 1437.7h71.9v4.9h-71.9z"/>
     <path class="st0" d="m4510.8 1442.7h81.3v28.9h-81.3z"/>
     <path class="st0" d="m4491.7 1395.6v42.1h5.5v-36.6h108.5v36.6h5.5v-42.1z"/>
     <path class="st0" d="m4341.5 1437.7h71.9v4.9h-71.9z"/>
     <path class="st0" d="m4336.8 1442.7h81.3v28.9h-81.3z"/>
     <path class="st0" d="m4437.2 1395.6h-119.5v42.1h5.5v-36.6h108.5v36.6h5.5z"/>
     <path class="st0" d="m4167.5 1437.7h71.9v4.9h-71.9z"/>
     <path class="st0" d="m4162.8 1442.7h81.3v28.9h-81.3z"/>
     <path class="st0" d="m4263.2 1395.6h-119.5v42.1h5.5v-36.6h108.5v36.6h5.5z"/>
     <path class="st0" d="m3993.5 1437.7h71.9v4.9h-71.9z"/>
     <path class="st0" d="m3988.8 1442.7h81.3v28.9h-81.3z"/>
     <path class="st0" d="m4089.2 1395.6h-119.5v42.1h5.5v-36.6h108.5v36.6h5.5z"/>
     <path class="st0" d="m3819.5 1437.7h71.9v4.9h-71.9z"/>
     <path class="st0" d="m3814.8 1442.7h81.3v28.9h-81.3z"/>
     <path class="st0" d="m3915.2 1395.6h-119.5v42.1h5.5v-36.6h108.5v36.6h5.5z"/>
     <path class="st0" d="m3645.5 1437.7h71.9v4.9h-71.9z"/>
     <path class="st0" d="m3640.8 1442.7h81.3v28.9h-81.3z"/>
     <path class="st0" d="m3741.2 1395.6h-119.5v42.1h5.5v-36.6h108.5v36.6h5.5z"/>
     <path class="st0" d="m3471.5 1437.7h71.9v4.9h-71.9z"/>
     <path class="st0" d="m3466.8 1442.7h81.3v28.9h-81.3z"/>
     <path class="st0" d="m3567.2 1395.6h-119.5v42.1h5.5v-36.6h108.5v36.6h5.5z"/>
     <path class="st0" d="m3297.6 1437.7h71.9v4.9h-71.9z"/>
     <path class="st0" d="m3292.8 1442.7h81.3v28.9h-81.3z"/>
     <path class="st0" d="m3393.2 1395.6h-119.4v42.1h5.5v-36.6h108.5v36.6h5.4z"/>
     <path class="st0" d="m3080 1368.9h49v5h-49z"/>
     <path class="st0" d="m3075.3 1373.9h58.4v25.8h-58.4z"/>
     <path class="st0" d="m2984.4 1368.9h71.9v5h-71.9z"/>
     <path class="st0" d="m2979.6 1373.9h81.3v25.9h-81.3z"/>
     <path class="st0" d="m2911.6 1368.9h49v5h-49z"/>
     <path class="st0" d="m2906.8 1373.9h58.4v25.8h-58.4z"/>
     <path class="st0" d="m2671.2 1437.7h71.9v4.9h-71.9z"/>
     <path class="st0" d="m2666.5 1442.7h81.3v28.9h-81.3z"/>
     <path class="st0" d="m2766.9 1395.6v42.1h-5.5v-36.6h-108.5v36.6h-5.5v-42.1z"/>
     <path class="st0" d="m2497.2 1437.7h71.9v4.9h-71.9z"/>
     <path class="st0" d="m2492.5 1442.7h81.3v28.9h-81.3z"/>
     <path class="st0" d="m2592.9 1395.6v42.1h-5.5v-36.6h-108.5v36.6h-5.5v-42.1z"/>
     <path class="st0" d="m2323.2 1437.7h71.9v4.9h-71.9z"/>
     <path class="st0" d="m2318.5 1442.7h81.3v28.9h-81.3z"/>
     <path class="st0" d="m2418.9 1395.6v42.1h-5.5v-36.6h-108.5v36.6h-5.5v-42.1z"/>
     <path class="st0" d="m2149.2 1437.7h71.9v4.9h-71.9z"/>
     <path class="st0" d="m2144.5 1442.7h81.3v28.9h-81.3z"/>
     <path class="st0" d="m2244.9 1395.6v42.1h-5.5v-36.6h-108.5v36.6h-5.5v-42.1z"/>
     <path class="st0" d="m1975.2 1437.7h71.9v4.9h-71.9z"/>
     <path class="st0" d="m1970.5 1442.7h81.3v28.9h-81.3z"/>
     <path class="st0" d="m2070.9 1395.2v42.1h-5.5v-36.6h-108.5v36.6h-5.5v-42.1z"/>
     <path class="st0" d="m1801.2 1437.7h71.9v4.9h-71.9z"/>
     <path class="st0" d="m1796.5 1442.7h81.3v28.9h-81.3z"/>
     <path class="st0" d="m1896.9 1395.2v42.1h-5.5v-36.6h-108.5v36.6h-5.5v-42.1z"/>
     <path class="st0" d="m1627.2 1437.7h71.9v4.9h-71.9z"/>
     <path class="st0" d="m1622.5 1442.7h81.3v28.9h-81.3z"/>
     <path class="st0" d="m1722.9 1395.2v42.1h-5.5v-36.6h-108.5v36.6h-5.5v-42.1z"/>
     <path class="st0" d="m1453.2 1437.7h71.9v4.9h-71.9z"/>
     <path class="st0" d="m1448.5 1442.7h81.3v28.9h-81.3z"/>
     <path class="st0" d="m1548.9 1395.2v42.1h-5.5v-36.6h-108.5v36.6h-5.5v-42.1z"/>
     <path class="st0" d="m1279.2 1437.7h71.9v4.9h-71.9z"/>
     <path class="st0" d="m1274.5 1442.7h81.3v28.9h-81.3z"/>
     <path class="st0" d="m1374.9 1395.2v42.1h-5.5v-36.6h-108.5v36.6h-5.5v-42.1z"/>
     <path class="st0" d="m1017.3 1588.8h71.9v4.9h-71.9z"/>
     <path class="st0" d="m1012.6 1593.8h81.3v28.9h-81.3z"/>
     <path class="st0" d="m1113 1546.9v42.2h-5.5v-36.7h-108.5v36.7h-5.5v-42.2z"/>
     <path class="st0" d="m898.6 1349.8h4.9v71.9h-4.9z"/>
     <path class="st0" d="m869.7 1345.1h28.9v81.3h-28.9z"/>
     <path class="st0" d="m945.7 1445.5h-42.2v-5.5h36.7v-108.5h-36.7v-5.5h42.2z"/>
     <path class="st0" d="m898.6 1522.9h5v58.2h-5z"/>
     <path class="st0" d="m869.7 1518.1h28.9v67.6h-28.9z"/>
     <path class="st0" d="m945.7 1492.2v96.6h-5.5v-91.1h-36.6v-5.5z"/>
     <path class="st0" d="m898.6 1172.6h4.9v71.9h-4.9z"/>
     <path class="st0" d="m869.7 1167.9h28.9v81.3h-28.9z"/>
     <path class="st0" d="m945.7 1268.3h-42.2v-5.5h36.7v-108.5h-36.7v-5.5h42.2z"/>
     <path class="st0" d="m898.6 995.4h4.9v71.9h-4.9z"/>
     <path class="st0" d="m869.7 990.7h28.9v81.3h-28.9z"/>
     <path class="st0" d="m945.7 1091.1h-42.2v-5.5h36.7v-108.5h-36.7v-5.5h42.2z"/>
    </g>
   </g>
  </g>
 </g>
</svg>
