<svg width="326.24" height="140.13" version="1.1" viewBox="0 0 326.24 140.13" xmlns="http://www.w3.org/2000/svg">
 <g transform="translate(-294.23 68.555)">
  <g transform="matrix(.26458 0 0 .26458 294.23 -91.49)">
   <g class="svg-pan-zoom_viewport" transform="matrix(.20444 0 0 .20444 0 86.683)">
    <g transform="translate(40.5,-41.5)" fill="none" stroke-miterlimit="10">
     <path d="m3609.3 2276.5v229.1h-1079.1v-13.6" stroke="#6f6f6f" stroke-dasharray="12" stroke-width=".25"/>
     <path d="m5027.6 86.09v647.82h68.098v888.54h-309.37v-149.97h-1593v-78.068h-447.4v77.572h-1588.6v153.12h-307.81v-892.55h71.084v-267.08h-3.503v-376.66h-913.91v620.74h62.877v1236c-6.766-0.136 36.647-0.081-63.892 0.39v640.5h916.55v-375.22h232.72v97.68h1229.3v225.44h1190.3v-225.44h1222.4v-96.219h230.15v374.92h917.45v-647.8h-62.088v-1205.9h60.598v-647.82z" stroke="#706f6f" stroke-dasharray="4.16373, 4.16373" stroke-width="4.164"/>
    </g>
    <g transform="translate(40.5,-41.5)">
     <g transform="translate(-40,42)" stroke-miterlimit="10">
      <g fill="#706f6f" stroke="#706f6f">
       <path class="st3" d="m48.5 209v-4.6h38.5v-117.4h140.3v-38.5h4.6v-6.4h-189.8v166.9z"/>
       <path class="st3" d="m48.5 299.2h38.5v52.4h8.2v29.3h-8.2v52.5h-38.5v4.6h-6.4v-143.4h6.4z"/>
       <path class="st3" d="m108.9 1084.9h-5v-102.1h5v4.7h34v92.7h-34z"/>
       <path class="st3" d="m423.8 1085.2h-9.4v-105.3h9.4v4.7h13.9v95.9h-13.9z"/>
       <path class="st3" d="m108.9 1258.9h-5v-102.1h5v4.7h34v92.7h-34z"/>
       <path class="st3" d="m423.8 1267.9h-9.4v-122.3h9.4v4.7h13.9v112.8h-13.9z"/>
       <path class="st3" d="m108.9 1432.9h-5v-102.1h5v4.7h34v92.7h-34z"/>
       <path class="st3" d="m108.9 1606.9h-5v-102.1h5v4.7h34v92.7h-34z"/>
       <path class="st3" d="m423.8 1566.4h-9.4v-238.1h9.4v4.7h13.9v228.7h-13.9z"/>
       <path class="st3" d="m380.5 1721.5h-237.6v54.7h-34v4.7h-5v-102.1h5v4.7h34v4h271.5v-60.7h9.4v4.7h13.9v50.7h11.5v39.3h-51.3"/>
       <path class="st3" d="m397.9 1918.8h72.3v22.4h4.8v8.9h-388v111.5h-38.5v4.6h-6.4v-167h61.8v-46.4h5v4.7h34v61.3h237.6"/>
       <path class="st3" d="m48.5 2156.4h38.5v52.4h5.9v29.3h-5.9v52.4h-38.5v4.6h-6.4v-143.3h6.4z"/>
       <path class="st3" d="m48.5 2385.3h38.5v117.4h140.3v38.5h4.6v6.4h-189.8v-166.9h6.4z"/>
       <path class="st3" d="m393.2 2189.2h28.6v28.5h-28.6z"/>
       <path class="st3" d="m625.6 2189.2h29.3v29.3h-29.3z"/>
       <path class="st3" d="m317.5 2541.2h4.6v-38.5h134.2v38.5h4.5v6.4h-143.3z"/>
       <path class="st3" d="m685.2 2541.2v-38.5h-134.2v38.5h-4.5v6.4h143.3v-6.4z"/>
       <path class="st3" d="m775.4 2541.2v6.4h189.8v-166.9h-6.4v4.6h-38.5v117.4h-140.3v38.5z"/>
       <path class="st3" d="m912.1 2238.1h8.2v52.4h38.5v4.6h6.4v-122.5h68v-4.9h-4.7v-29h-75.3v-230.3h86.2v-10.2h-4.8v-13.1h-140.8v-11.5h-29.3l0.5 44.5h-238.2v-18.9h-17.4v18.9h-72.8v23.9h-4.7v8.1h388.4v258.7h-8.2z"/>
       <path class="st3" d="m1393.9 1903.5h-4.7v-18.4h-284.7v13.1h-4.7v10.2h108.1v230.3h-84.4v29h-4.7v4.9h68v98h182.9v-6.4h-4.6v-38.5h-133.4v-311.6h162.2z"/>
       <path class="st3" d="m1459.9 2225.7v38.5h-4.6v6.4h143.4v-6.4h-4.6v-38.5z"/>
       <path class="st3" d="m1684.3 2270.6v-6.4h4.6v-38.5h134.1v38.5h4.6v6.4z"/>
       <path class="st3" d="m2052 2264.2v-38.5h-134.2v38.5h-4.6v6.4h143.3v-6.4z"/>
       <path class="st3" d="m2285.5 2219.3h-25.9v51.3h-117.4v-6.4h4.5v-38.5h58.4v-311.6h-155.5v-10.6h4.7v-18.4h234.9v18.4h4.7v10.6h-62v265.9h48.8v32.7h4.8z"/>
       <path class="st3" d="m1457.6 1903.5v10.6h527v-10.6h-4.7v-18.4h-517.6v18.4z"/>
       <path class="st3" d="m2519.4 1914.1-0.1-10.6h-4.9v-18.4h-155.3v18.4h-4.7v10.6h80.8v265.9h-59.4v32.7h-4.7v6.6h23.1v50.4h97.1v-50.4h23.1v-6.6h-4.7v-32.7h-54.5l-0.1-265.9z"/>
       <path class="st3" d="m3346.6 2180h-663.5v-11.5h-23.3v11.5h-55.1v32.7h-4.7v6.6h23.2v50.4h97v-50.4h131.8v50.3h97.1v-50.3h132v50.5h97.1v-50.5h131.7v50.4h97.1v-50.4h23.1v-6.6h-4.7v-32.7h-55.4"/>
       <path class="st3" d="m3520.5 2180v32.7h-4.7v6.6h23.1v50.4h97.1v-50.4h23.1v-6.6h-4.7v-32.7"/>
       <path class="st3" d="m3807.7 1911.4v267.2h-58.2v32.8h-4.8v6.5h25.9v51.3h117.4v-6.4h-4.6v-38.5h-58.3v-314.8h74.6v-12.8h-3.8v-13h-154.9v13h-4.8v14.7z"/>
       <path class="st3" d="m3961.1 1908.4v-10.3h4.7v-13h311.1v13h4.7v10.3z"/>
       <path class="st3" d="m3973.7 2264.2h4.6v-38.5h134.1v38.5h4.6v6.4h-143.3z"/>
       <path class="st3" d="m4345.9 2270.6h-143.3v-6.4h4.6v-38.5h134.1v38.5h4.6z"/>
       <path class="st3" d="m4570.3 2264.2v-38.5h-134.2v38.5h-4.6v6.4h143.3v-6.4z"/>
       <path class="st3" d="m4911.4 2172.6v-4.9h-4.7v-29h-90.8v-158.2h-17.4v245.2h-133.4v38.5h-4.7v6.4h183v-98z"/>
       <path class="st3" d="m4641.8 1885.1h-295.1v13h-4.7v10.3h304.5v-10.3h-4.7z"/>
       <path class="st3" d="m4997 2167.7v4.9h68v122.5h6.4v-4.6h38.5v-52.4h5.9v-29.3h-5.9v-258.7h362.1v-23.3h-51.2v-27.6h-17.4v27.6h-237.7v-53.2h-29.3v11.5h-150v13h-4.7v10.3h110.8v230.3h-90.8v29z"/>
       <path class="st3" d="m5071.4 2385.3h38.5v117.4h140.3v38.5h4.6v6.4h-189.8v-166.9h6.4z"/>
       <path class="st3" d="m5479.1 2541.2v-38.5h-134.1v38.5h-4.6v6.4h143.4v-6.4z"/>
       <path class="st3" d="m5708.1 2541.2v-38.5h-134.2v38.5h-4.5v6.4h143.3v-6.4z"/>
       <path class="st3" d="m5798.3 2541.2v6.4h189.8v-166.9h-6.4v4.6h-38.5v117.4h-140.3v38.5z"/>
       <path class="st3" d="m5981.7 2290.5h-38.5v-52.4h-5.9v-29.3h5.9v-52.4h38.5v-4.6h6.4v143.3h-6.4z"/>
       <path class="st3" d="m5632.3 1899.2h17.4v27.6h237.7v-69.3h33.9v-4.7h4.9v46.4h61.9v167h-6.4v-4.6h-38.5v-111.5h-362.2v-23.3h51.3z"/>
       <path class="st3" d="m5655.6 2238.1h-29.2l0.7-29.3h28.5z"/>
       <path class="st3" d="m5426.2 2238.1h-28.8v-29.3h29.3z"/>
       <path class="st3" d="m5702.6 1691h184.8v-7.5h33.9v-4.7h4.9v102.1h-4.9v-4.7h-33.9v-61.9h-185.1"/>
       <path class="st3" d="m5921.3 1504.8h4.9v102.1h-4.9v-4.7h-33.9v-92.7h33.9z"/>
       <path class="st3" d="m5921.3 1330.8h4.9v102.1h-4.9v-4.7h-33.9v-92.7h33.9z"/>
       <path class="st3" d="m5610.8 1326.9h12.4v256.4h-12.4v-4.7h-18.3v-246.9h18.3z"/>
       <path class="st3" d="m5921.3 1156.8h4.9v102.1h-4.9v-4.7h-33.9v-92.7h33.9z"/>
       <path class="st3" d="m5610.8 983.5h12.4v283h-12.4v-4.7h-18.3v-273.6h18.3z"/>
       <path class="st3" d="m5921.3 982.8h4.9v102.1h-4.9v-4.7h-33.9v-92.7h33.9z"/>
       <path class="st3" d="m5921.3 808.8h4.9v102.1h-4.9v-4.7h-33.9v-92.7h33.9z"/>
       <path class="st3" d="m5921.3 732.2h-33.9v-69.2h-264.2v57.7h-12.4v-4.7h-18.3v-53h-8.7v-23.4h359.4v-111.4h38.5v-4.6h6.4v168.3l-61.9-1.4v46.5h-4.9z"/>
       <path class="st3" d="m5610.8 918.4h-18.3v-132.6h18.3v-4.7h12.4v142h-12.4z"/>
       <path class="st3" d="m5620.4 345.7h41.2v41.2h-41.2z"/>
       <path class="st3" d="m5943.2 299.2h38.5v-4.6h6.4v143.4h-6.4v-4.6h-38.5v-46.5h-8.2v-41.2h8.2z"/>
       <path class="st3" d="m5981.7 204.4h-38.5v-117.4h-140.3v-38.5h-4.6v-6.4h189.8v166.9h-6.4z"/>
       <path class="st3" d="m5573.9 48.5v38.5h134.2v-38.5h4.6v-6.4h-143.3v6.4z"/>
       <path class="st3" d="m5483.8 48.5v-6.4h-143.4v6.4h4.6v38.5h134.1v-38.5z"/>
       <path class="st3" d="m5065 42.1v166.9h6.4v-4.6h38.5v-117.4h140.3v-38.5h4.6v-6.4z"/>
       <path class="st3" d="m5071.4 299.2h38.5v46.5h8.2v41.2h-8.2v46.5h-38.5v4.6h-6.4v-143.4h6.4z"/>
       <path class="st3" d="m5391.5 345.7h41.2v41.2h-41.2z"/>
       <path class="st3" d="m5071.4 528.2h38.5v111.4h359.4v23.4h-8.7v174.1h-4.9v-4.7h-18.5v-169.4h-271.5v65.1h-28.9v4.7h-4.9v-42.3h-66.9v-166.9h6.4z"/>
       <path class="st3" d="m5136.8 809.4h28.9v82.5h271.5v-11.4h18.5v-4.7h4.9v70h-18.4v4.8h-11.6v-41.3h-264.9v61.3h-28.9v4.7h-4.9v-170.6h4.9z"/>
       <path class="st3" d="m5136.8 1152.5h-4.9v-91.6h4.9v4.7h28.9v82.2h-28.9z"/>
       <path class="st3" d="m5442.2 1319.5h-11.6v-308.5h11.6v4.7h18.4v299.1h-18.4z"/>
       <path class="st3" d="m5136.8 1329.7h-4.9v-91.6h4.9v4.7h28.9v82.1h-28.9z"/>
       <path class="st3" d="m5136.8 1509.6h-4.9v-94.3h4.9v4.7h28.9v84.9h-28.9z"/>
       <path class="st3" d="m5403.4 1714.3h-237.7v50.3h-29.3v-11.4h-20.5v-18.4h-4.7v-9.8h37.1v-40.8h12.5v-4.7h4.9v4.5h264.9v-304.5h11.6v4.7h18.4v298h8.7v32.1h-48.5v27.4h-17.4z"/>
       <path class="st3" d="m5160.8 1639.7v-4.7h-12.5v-25.6h-125.5v-28.9h-4.7v-4.9h113.8v-7.8h4.9v4.7h28.9v67.2z"/>
       <path class="st3" d="m4589.9 1725v9.8h4.7v18.4h472.5v-18.4h4.7v-9.8h-255.9v-115.6h125.5v-28.9h4.8v-4.9h-113.8v-151.1h-76.2v4.9h4.7v28.9h33v266.7z"/>
       <path class="st3" d="m4586.9 1429.4v28.9h92.7v-28.9h4.7v-4.9h-102.2v4.9z"/>
       <path class="st3" d="m4412.9 1429.4v28.9h92.7v-28.9h4.7v-4.9h-102.1v4.9z"/>
       <path class="st3" d="m4234.2 1424.5h102.1v4.9h-4.7v28.9h-92.7v-28.9h-4.7z"/>
       <path class="st3" d="m4060.2 1424.5h102.1v4.9h-4.7v28.9h-92.7v-28.9h-4.7z"/>
       <path class="st3" d="m3983.6 1458.3h-30.5v266.7h238.9v9.8h-4.8v18.4h-308.9v-18.4h-4.7v-9.8h55.5v-266.7h-38.2v-28.9h-4.7v-4.9h102.1v4.9h-4.7z"/>
       <path class="st3" d="m4528.6 1734.8v-9.8h-275.4v9.8h4.8v18.4h265.9v-18.4z"/>
       <path class="st3" d="m3241.3 1424.5v-73.3h-112.8v4.4h-4.6v5h4.6v25.8h78.9v338.6h-5.9v28.2h148.3v8.7h17.4v-8.7h441.3v-18.4h4.7v-9.8h-588.4v-266.7h62.8v-28.9h4.7v-4.9z"/>
       <path class="st3" d="m3364.2 1424.5h102.1v4.9h-4.7v28.9h-92.6v-28.9h-4.8z"/>
       <path class="st3" d="m3640.3 1429.4v-4.9h-102.1v4.9h4.7v28.9h92.7v-28.9z"/>
       <path class="st3" d="m3814.3 1429.4v-4.9h-102.1v4.9h4.8v28.9h92.6v-28.9z"/>
       <path class="st3" d="m2911.9 1753.2v-23.1l-23.2-0.2-0.1 23.3z"/>
       <path class="st3" d="m3118.3 1729.9h23.4v23.4h-23.4z"/>
       <path class="st3" d="m3055.8 1360.6h-4.7v-5h4.7v-4.4h14.3v4.4h4.7v5h-4.7v25.8h-14.3z"/>
       <path class="st3" d="m2974.4 1386.4h-14.4v-25.8h-4.7v-5h4.7v-4.4h14.4v4.4h4.8v5h-4.8z"/>
       <path class="st3" d="m2742.6 1429.4v28.9h62.8l-0.1 263.8h-273.6l0.2 12.7h4.7v18.4h126.4v8.7h17.4v-8.7h148.3v-23.3h-5.9v-343.5h78.8v-25.8h4.8v-5h-4.8v-4.4h-112.7v73.3h-51.1v4.9z"/>
       <path class="st3" d="m2568.6 1429.4v28.9h92.7v-28.9h4.7v-4.9h-102.1v4.9z"/>
       <path class="st3" d="m2492 1429.4h-4.7v28.9h-92.7v-28.9h-4.7v-4.9h102.1z"/>
       <path class="st3" d="m2318 1424.5v4.9h-4.7v28.9h-92.7v-28.9h-4.7v-4.9z"/>
       <path class="st3" d="m2362.9 1753.2h-250.1v-18.4h-4.7v-12.7h259.5v12.7h-4.7z"/>
       <path class="st3" d="m2148.2 1753.2h-110.5v-18.4h-4.8l-0.1-12.7 52.8-0.2 0.1-263.8-39.1 0.2v-28.9h-4.7v-4.9h102.1v4.9h-4.7v28.9h-30.2l-0.2 263.8h43.9l0.1 12.7h-4.7z"/>
       <path class="st3" d="m1872.6 1429.4h-4.7v-4.9h102.1v4.9h-4.7v28.9h-92.7z"/>
       <path class="st3" d="m1693.9 1424.5h102.1v4.9h-4.7v28.9h-92.7v-28.9h-4.7z"/>
       <path class="st3" d="m1519.9 1424.5h102.1v4.9h-4.7v28.9h-92.7v-28.9h-4.7z"/>
       <path class="st3" d="m1345.9 1424.5h102.1v4.9h-4.7v28.9h-92.7v-28.9h-4.7z"/>
       <path class="st3" d="m1084 1575.6h113.8v-151.1h76.2v4.9h-4.7v28.9h-37.6v263.8h59.5v12.7h-4.7v18.4h-303.4v-18.4h-4.8v-12.7h236v-112.7h-125.6v-28.9h-4.7z"/>
       <path class="st3" d="m1613.5 1734.8v-12.7h-261.9v12.7h4.8v18.4h252.4v-18.4z"/>
       <path class="st3" d="m1802.2 1722.1h-128.2v12.7h4.7v18.4h118.8v-18.4h4.7z"/>
       <path class="st3" d="m1972.5 1722.1h-109.9v12.7h4.7v18.4h100.5v-18.4h4.7z"/>
       <path class="st3" d="m864.5 1572.5v115h-146.7v8.4h4.8v26.2h141.9v42.5h34.3v-11.4h41.2v-18.4h4.7v-12.7h-57.8v-112.7h120.5v-28.9h4.7v-4.9h-113.8v-7.8h-4.9v4.7z"/>
       <path class="st3" d="m626.8 1741.7v-19.6h54.5v-26.2h4.7v-8.8h-86.8v-237h-11.2v4.7h-18.4v227.4h-11.5v39.9h51.3v19.6z"/>
       <path class="st3" d="m893.4 1408.4h4.9v101.2h-4.9v-4.7h-28.9v-91.8h28.9z"/>
       <path class="st3" d="m893.4 1231.2h4.9v105.3h-4.9v-4.7h-28.9v-95.9h28.9z"/>
       <path class="st3" d="m893.4 1054h4.9v105.3h-4.9v-4.7h-28.9v-95.9h28.9z"/>
       <path class="st3" d="m596.1 663h-56.2v-13.5h-8v-9.9h122"/>
       <path class="st3" d="m632.8 639.6h287.5v-111.4h38.5v-4.6h6.4v166.9h-66.9v291.6h-4.9v-4.7h-28.9v-62.1h-265.3v480.2h-11.2v-4.8h-18.4l3.2-511.7 15.2-0.2v-5h11.2v18.1h265.3v-228.9h-268.4"/>
       <path class="st3" d="m920.3 351.6v-52.4h38.5v-4.6h6.4v143.4h-6.4v-4.6h-38.5v-52.5"/>
       <path class="st3" d="m958.8 204.4h-38.5v-117.4h-140.3v-38.5h-4.6v-6.4h189.8v166.9h-6.4z"/>
       <path class="st3" d="m632.8 95.2h-29.3v-8.2h-52.5v-38.5h-4.5v-6.4h143.3v6.4h-4.6v38.5h-52.4z"/>
       <path class="st3" d="m603.5 351.6h29.3v29.3h-29.3z"/>
       <path class="st3" d="m374.5 351.6h29.3v29.3h-29.3z"/>
       <path class="st3" d="m322.1 48.5v38.5h52.4v8.2h29.3v-8.2h52.5v-38.5h4.5v-6.4h-143.3v6.4z"/>
       <path class="st3" d="m3312.1 1910.8h29"/>
       <path class="st3" d="m4707.2 1898.1h4.4v-13h207v13h6v10.3h-108.7v80.1h-17.4v-80.1h-91.3z"/>
       <path class="st3" d="m4111.3 1638.8h17.3v91.1h-17.3z"/>
       <path class="st3" d="m4111.3 1458.3h17.3v184.5h-17.3z"/>
       <path class="st3" d="m426 921h-11.6v-130.5h11.6v7h11.7v115.5h-11.7z"/>
       <path class="st3" d="m5664.6 1714.5h-84.8v-31.8h13v-35.7h17.4v-4.8h13l0.4 48.5h41"/>
       <path class="st3" d="m2987.4 1912.7-0.4-10.6h-12.2v-18.4h-390.1v18.4h-11.8v10.6"/>
       <path class="st3" d="m3229.1 1912.7-0.2-10.6h-5.6v-18.4h-178v18.4h-5.4v10.6"/>
       <path class="st3" d="m3473.7 1912.7-0.1-10.6h-5.6v-18.4h-178v18.4h-5.4v10.6"/>
       <path class="st3" d="m3753.9 1912.7-0.2-10.6h-6.6v-18.4h-211.4v18.4h-6.5v10.6"/>
       <path class="st3" d="m403.7 1899.9h17.4v18.9h-17.4z"/>
       <path class="st3" d="m2684.3 1753.2h-250.1v-18.4h-4.7v-12.7h259.5v12.7h-4.7z"/>
       <path class="st3" d="m1883.5 1722.1h-109.9v12.7h4.7v18.4h100.5v-18.4h4.7z"/>
       <path class="st3" d="m423.8 1174.9h-9.4v-122.3h9.4v4.7h13.9v112.8h-13.9z"/>
       <path class="st3" d="m365.4 651.3v-11.7h130.5v11.7h-7v11.7h-115.5v-11.7z"/>
       <path class="st3" d="m437.7 658.3v65.5h-11.7v8h-11.6v-80.5"/>
       <path class="st3" d="m569.5 808.2h26.7v29.3h-26.7z"/>
       <path class="st3" d="m569.5 702.5h26.7v29.3h-26.7z"/>
       <path class="st3" d="m5630.6 1712.8h18v17.1h-18z"/>
       <path class="st3" d="m5442.2 1147.8h-11.6v-227.5h11.6v3.5h18.4v220.5h-18.4z"/>
       <path class="st3" d="m108.9 910.2h-5v-102.1h5v4.7h34v92.7h-34z"/>
       <path class="st3" d="m47.8 625.7h-5.7v-102.1h5.7v4.7h39.2v92.7h-39.2z"/>
       <path class="st3" d="m42.1 590.5h44.9v72.5h-44.9z"/>
       <path class="st3" d="m82.9 639.6h290.5v23.3h-290.5z"/>
       <path class="st3" d="m108.9 742.6h-5v-102.1h5v4.7h34v92.7h-34z"/>
       <path class="st3" d="m919.8 344.5h16.1v39.3h-16.1z"/>
      </g>
      <g fill="none" stroke="#9d9d9d">
       <g stroke-width="1.5">
        <path class="st0" d="m379.6 95.2h19v256.4h-19z"/>
        <path class="st0" d="m608.6 374-6.2 2.5h-66.8v12.5h97.2v44.4h15.8v-346.4h-15.8v264.6z"/>
        <path class="st0" d="m632.8 414.1h15.8v225.5h-15.8z"/>
        <path class="st0" d="m142.9 1006.6h186.7v16.8h-186.7z"/>
        <path class="st0" d="m371.1 1006.6h43.3v16.8h-43.3z"/>
        <path class="st0" d="m142.9 1375.5h271.5v14h-271.5z"/>
        <path class="st0" d="m422.5 1786.1h7.6v134.7h-7.6z"/>
        <path class="st0" d="m4056.8 2225.7h13.7v-317.3h-13.7z"/>
        <path class="st0" d="m5459.6 2039.5h-13.5v169.3h-330.3v11.7h330.3v5h13v-186"/>
        <path class="st0" d="m5447.1 1950.1h12v26.8h-12z"/>
        <path class="st0" d="m5653.1 2214h284.2v9.5h-284.2z"/>
       </g>
       <path class="st1" d="m5623.2 1523.2h264.1v15.5h-264.1z"/>
       <path class="st1" d="m5623.2 1179.2h264.1v16.1h-264.1z"/>
       <path class="st1" d="m5623.2 856.5h264.1v16.5h-264.1z"/>
       <path class="st1" d="m5572.6 650h11.2v13.1h-11.2z"/>
       <path class="st1" d="m5165.7 1065.6h190v14.8h-190z"/>
       <path class="st1" d="m5165.7 1266.5h264.8v10.5h-264.8z"/>
       <path class="st1" d="m5430.6 1459.5h-267l2.1-11.5h264.9z"/>
       <path class="st1" d="m5355.2 1665h6.3v19h-6.3z"/>
       <path class="st1" d="m5047.1 1731.5v-132l9 5.7v126.3z"/>
       <path class="st1" d="m4624.6 1453.7h15v276.2h-15z"/>
       <path class="st1" d="m4454.6 1458.3h16.5v110.6h-16.5z"/>
       <path class="st1" d="m4283.1 1458.3h14.5v158.6h-14.5z"/>
       <path class="st1" d="m3765.9 1443.9h11.7v293.6h-11.7z"/>
       <path class="st1" d="m2587.7 1458.3h9.9v201.6h-9.9z"/>
       <path class="st1" d="m2587.7 1699h9.9v23.2h-9.9z"/>
       <path class="st1" d="m2461.9 1452.5h12.5v283.2h-12.5z"/>
       <path class="st1" d="m1751.2 1722.1v-71.7l11.4 0.1v71.6z"/>
       <path class="st1" d="m1563.1 1457.9h10.5v279.7h-10.5z"/>
       <path class="st1" d="m1397 1458.3h9.1v263.8h-9.1z"/>
       <path class="st1" d="m720.1 1572.5h7.5v115h-7.5z"/>
       <path class="st1" d="m680.1 1687.5h-8.5v-92.3h-9.5v-9.2h9l0.5-15.5h8.5z"/>
       <path class="st1" d="m599.2 1585h36.8v10.3h-36.8z"/>
       <path class="st1" d="m599.2 1488h9.3v12h-9.3z"/>
       <path class="st1" d="m865 1500v-12h-199.9v-19h-8.5v19h-8v12h22.5v29.5h9v-29.5h40v29.5h7.5v-29.5z"/>
       <path class="st1" d="m599.2 1085.2h265.2v12.5h-265.2z"/>
       <path class="st1" d="m5665.2 233.6h278v11.5h-278z"/>
       <path class="st1" d="m5634.5 462.6h308.7v11.5h-308.7z"/>
       <path class="st1" d="m5109.5 465.3h314v11.5h-314z"/>
       <path class="st1" d="m5109.1 233.6h282.3v11.5h-282.3z"/>
       <path class="st1" d="m5426.9 83.1h11.5v118.6h-11.5z"/>
       <path class="st1" d="m5614.6 83.1h11.5v118.6h-11.5z"/>
       <path class="st1" d="m5458.5 314.8h11.5v118.6h-11.5z"/>
       <path class="st1" d="m5583.8 314.8h11.5v118.6h-11.5z"/>
       <path class="st1" d="m5414.9 475.4h11.5v46.1h-11.5z"/>
       <path class="st1" d="m5629.2 474.1h11.5v46.1h-11.5z"/>
       <path class="st1" d="m5414.9 558.2h11.5v47.2h-11.5z"/>
       <path class="st1" d="m5629.7 559h11.5v46.1h-11.5z"/>
       <path class="st1" transform="rotate(-45.001 5425.4 278.21)" d="m5419.7 220.9h11.5v114.5h-11.5z"/>
       <path class="st1" transform="rotate(-45.001 5455 221.37)" d="m5449.2 187.5h11.5v67.6h-11.5z"/>
       <path class="st1" transform="rotate(45.001 5599.5 221.23)" d="m5593.7 187.5h11.5v67.6h-11.5z"/>
       <path class="st1" transform="rotate(45.001 5628.9 276.78)" d="m5623.2 218.2h11.5v117.4h-11.5z"/>
       <path class="st1" d="m5475.2 237.9h31.8v11.5h-31.8z"/>
       <path class="st1" d="m5547.4 237.9h31.9v11.5h-31.9z"/>
       <path class="st1" transform="rotate(-45.001 5442.5 624.86)" d="m5436.8 592.1h11.5v65.3h-11.5z"/>
       <path class="st1" transform="rotate(45.001 5613.8 624.52)" d="m5608.1 591.6h11.5v65.9h-11.5z"/>
       <path class="st1" transform="rotate(45.001 5461.5 433.85)" d="m5455.7 427.9h11.5v12.1h-11.5z"/>
       <path class="st1" transform="rotate(45.001 5423.5 470.98)" d="m5417.7 465h11.5v12.1h-11.5z"/>
       <path class="st1" transform="rotate(45.001 5391.5 237.77)" d="m5385.6 231.8h11.5v12.1h-11.5z"/>
       <path class="st1" transform="rotate(45.001 5429 201.61)" d="m5423.2 195.6h11.5v12.1h-11.5z"/>
       <path class="st1" transform="rotate(45.001 5624 202.31)" d="m5618.2 196.3h11.5v12.1h-11.5z"/>
       <path class="st1" transform="rotate(45.001 5662.5 235.28)" d="m5656.7 229.3h11.5v12.1h-11.5z"/>
       <path class="st1" transform="rotate(45.001 5592.2 433.34)" d="m5586.4 427.3h11.5v12.1h-11.5z"/>
       <path class="st1" transform="rotate(45.001 5631.4 467.66)" d="m5625.7 461.7h11.5v12.1h-11.5z"/>
       <path class="st1" d="m5396.6 1065.6h35.3v14.8h-35.3z"/>
       <path class="st1" d="m5317 1271.7h10.5v68.8h-10.5z"/>
       <path class="st1" d="m5317 1380.8h10.5v68.8h-10.5z"/>
       <path class="st1" d="m5355.2 1610.8h6.3v28.9h-6.3z"/>
       <path class="st1" d="m5355.2 1556.3h6.3v28.9h-6.3z"/>
       <path class="st1" d="m5355.2 1500.1h6.3v28.9h-6.3z"/>
       <path class="st1" d="m5355.2 1453.7h6.3v20.1h-6.3z"/>
       <path class="st1" d="m5358.3 1513.4h74v4.3h-74z"/>
       <path class="st1" d="m5359.6 1568.7h74v4.3h-74z"/>
       <path class="st1" d="m5359.6 1623.1h74v4.3h-74z"/>
       <path class="st1" d="m5580.3 1712.8h11.5v72.5h-11.5z"/>
       <path class="st1" d="m5580.3 1814.4h11.5v115.4h-11.5z"/>
       <path class="st1" d="m5595.1 1950.1h11.5v26.1h-11.5z"/>
       <path class="st1" d="m5595.1 2009.5h11.5v223.8h-11.5z"/>
       <path class="st1" d="m5606.6 2210h23.6v20h-23.6z"/>
       <path class="st1" d="m5548.6 2274h52.2v16h-52.2z"/>
       <path class="st1" d="m5595.1 2266h11.5v253.2h-11.5z"/>
       <path class="st1" d="m5446.8 2264.4h11.5v253.2h-11.5z"/>
       <path class="st1" d="m5456.9 2273.9h52.2v16h-52.2z"/>
       <path class="st1" d="m3355.9 1910.1h11.7v272.4h-11.7z"/>
       <path class="st1" d="m3135.4 1900h11.7v282.6h-11.7z"/>
       <path class="st1" d="m2926.5 1902h11.7v280.5h-11.7z"/>
       <path class="st1" d="m2723.8 2022h208.6v7.5h-208.6z"/>
       <path class="st1" transform="rotate(-45.001 2698 1997.2)" d="m2694.3 1955.3h7.5v83.6h-7.5z"/>
       <path class="st1" transform="rotate(-45.001 2632.8 2037.2)" d="m2629.1 1972.5h7.5v129.3h-7.5z"/>
       <path class="st1" d="m2674.1 2080.8h7.5v91.2h-7.5z"/>
       <path class="st1" d="m2536.1 1988.8h53.2v7.5h-53.2z"/>
       <path class="st1" d="m2455.1 1988.8h40.4v7.5h-40.4z"/>
       <path class="st1" d="m2665.8 1950.7h7.5v19.5h-7.5z"/>
       <path class="st1" d="m2665.6 1903.5h7.5v15.8h-7.5z"/>
       <path class="st1" transform="rotate(45.001 2721.7 2034.3)" d="m2717.9 2021.4h7.5v25.9h-7.5z"/>
       <path class="st1" transform="rotate(45.001 2681.6 2075.1)" d="m2677.8 2068.1h7.5v14h-7.5z"/>
       <path class="st1" d="m618.1 2066.2h304.7v7.5h-304.7z"/>
       <path class="st1" d="m813.1 1942.8h7.5v44.7h-7.5z"/>
       <path class="st1" d="m813.1 2025.2h7.5v44.7h-7.5z"/>
       <path class="st1" d="m618.1 1945.8h7.5v44.7h-7.5z"/>
       <path class="st1" d="m618.1 2041.5h7.5v77.3h-7.5z"/>
       <path class="st1" d="m618.1 2171.3h7.5v331.4h-7.5z"/>
       <path class="st1" d="m495.2 2200.1h130.4v7.5h-130.4z"/>
       <path class="st1" d="m422.5 2041.5h7.5v472.6h-7.5z"/>
       <path class="st1" d="m422.5 1946.4h7.5v43.5h-7.5z"/>
       <path class="st1" d="m382.8 2144.3h43.5v7.5h-43.5z"/>
       <path class="st1" d="m87 2144.3h257.3v7.5h-257.3z"/>
       <path class="st1" d="m262.4 2029h7.5v122.6h-7.5z"/>
       <path class="st1" d="m262.4 1934.6h7.5v55.2h-7.5z"/>
       <path class="st1" d="m422.5 2200.1h31.4v7.5h-31.4z"/>
       <path class="st0" d="m422.5 1720.8h7.6v10.9h-7.6z" stroke-width="1.5"/>
       <path class="st1" transform="rotate(45.001 4438 1590.7)" d="m4429.7 1552.2h16.5v77.1h-16.5z"/>
       <path class="st1" d="m4404.9 1611.2h16.5v42.7h-16.5z"/>
       <path class="st1" d="m4372.6 1611.2h47.8v16.5h-47.8z"/>
       <path class="st1" d="m4245.1 1611.2h72v16.5h-72z"/>
       <path class="st1" d="m4123.9 1611.2h80.1v16.5h-80.1z"/>
       <path class="st1" d="m1751.2 1604.8v-146.9l11.4 0.3v146.6z"/>
       <path class="st1" d="m1119 1602.8h9.1v38.6h-9.1z"/>
       <path class="st1" d="m1119 1683.5h9.1v38.6h-9.1z"/>
       <g stroke-width="1.5">
        <path class="st0" d="m589.7 1260.3h291.7v7.6h-291.7z"/>
        <path class="st0" d="m134.4 1539.9h203.2v7.6h-203.2z"/>
        <path class="st0" d="m381.7 1539.9h56v7.6h-56z"/>
        <path class="st0" d="m135.9 841.1h282.7v16.8h-282.7z"/>
        <path class="st0" d="m574.4 827.5h16.8v82.3h-16.8z"/>
        <path class="st0" d="m569.6 644.8h16.8v82.3h-16.8z"/>
        <path class="st0" d="m556.7 378.2h12.9v158.8h-12.9z"/>
        <path class="st0" d="m556.7 586.3h12.9v58.5h-12.9z"/>
        <path class="st0" d="m297.2 376.3h177.7v12.9h-177.7z"/>
        <path class="st0" d="m83.6 376.3h159.7v12.9h-159.7z"/>
       </g>
       <path class="st1" d="m4404.9 1691.9h16.5v42.7h-16.5z"/>
      </g>
     </g>
     <g fill="none" stroke="#ff5fbe" stroke-miterlimit="10" stroke-width="1.5">
      <path class="st11" d="m5387.1 129.4v108.3l-6.3 6.3-32.6 31.8 0.3 0.2h-278v0.8-147.1 0.6h316.6"/>
      <path class="st11" d="m5575.2 130.3-176.8-0.2v-0.7 109.3l41.3 41.2h95.7-0.7l39.9-40.2v-110"/>
      <path class="st11" d="m5629.3 275.6h273.4"/>
      <path class="st11" d="m5902 275.6v-145.4h-0.8l-315.1 0.4v-1.2 109.6l43.2 36.6"/>
      <path class="st11" d="m5894.7 386.5h7.5"/>
      <path class="st11" d="m5893.3 430.1h8.6"/>
      <path class="st11" d="m5901.9 429.4v75.9-0.7h-307.4l-39.7-35.3v0.7-108.9l74-74h273.4v-0.5 99.9h-7.8l-0.4 43.9"/>
      <path class="st11" d="m5079.3 387.2v43.7-0.8h-9 0.8v77.7h-0.7 310.9l37.7-37.7v0.9-109.2l-75.2-75.2 0.7 0.5h-274.6 0.8v100.1-0.7h9.4"/>
     </g>
     <g fill="#fff" stroke="#ff5fbe" stroke-miterlimit="10" stroke-width="1.5">
      <path class="st11" d="m5374.9 519.1v128.7l33 32.5 0.6 0.6-337.6 0.2v-162z"/>
      <path class="st11" d="m5600.9 516.1v131l-31.8 31.9-2.2 2.1h335v-165z"/>
      <path class="st11" d="m5584.3 706.5h261.8v192h-261.8z"/>
      <path class="st11" d="m5584.3 915h261.8v306.2h-261.8z"/>
      <path class="st11" d="m5584.3 1237.3h261.8v327.9h-261.8z"/>
      <path class="st11" d="m5584.6 1580.7h261.5v151.3h-261.5z"/>
      <path class="st11" d="m5127.2 952.5h262.2v155.2h-262.2z"/>
      <path class="st11" d="m5127.1 1122.5h262.2v186h-262.2z"/>
      <path class="st11" d="m5127.1 1319h150.5v171h-150.5z"/>
      <path class="st11" d="m5287 1319h102.3v171h-102.3z"/>
     </g>
     <g fill="none" stroke="#ff5fbe" stroke-miterlimit="10" stroke-width="1.5">
      <path class="st11" d="m5846.1 1757.8h-236.4v-0.7 15.8h0.6-20.9l-0.2-15.1h0.7-38.7 0.6v209.9h39.4v1.1-28.8h19.7v-0.9 29.1-0.5h235.2v1.1-212.5"/>
      <path class="st11" d="m5566.6 1993.3h334.1l1.1 0.1v256.7-0.6h-5.7l-0.3 0.4v5.9l0.8 0.2h-279.8v0.7-7h0.5-31.5v3.5-0.8h-19.2v-259.9"/>
      <path class="st11" d="m5566.6 2543.8h335.2v-262.6l-5.9 0.1-0.1-9.5v-6.2l-279-0.2v-0.8 7.4l-0.1 9.3h-31l0.1-9.3h0.6-19.8v272.7"/>
     </g>
     <path class="st11" d="m5418.3 2331.9h136.8v212h-136.8z" fill="#fff" stroke="#ff5fbe" stroke-miterlimit="10" stroke-width="1.5"/>
     <path class="st11" d="m5070.6 2281.5h6.5v-19h279l0.3 18.9h31v-19.7 0.8h19.4-0.7l0.7 281.5-336.9 0.7 0.7 0.1v-264.1" fill="none" stroke="#ff5fbe" stroke-miterlimit="10" stroke-width="1.5"/>
     <g fill="#fff" stroke="#ff5fbe" stroke-miterlimit="10" stroke-width="1.5">
      <path class="st11" d="m5071.4 1993.3h334.7v257.5h-334.7z"/>
      <path class="st11" d="m4776.9 1952h274.5v228h-274.5z"/>
      <path class="st11" d="m4777.6 1652.3h229.5v114h-229.5z"/>
      <path class="st11" d="m5016.1 1652.3h91.2v114h-91.2z"/>
      <path class="st11" d="m4030.5 1951.5h726.8v315.3h-726.8z"/>
      <path class="st11" d="m3785.1 1951.5h231.7v313.7h-231.7z"/>
      <path class="st11" d="m3327.6 1955.6h438.3v265.6h-438.3z"/>
      <path class="st11" d="m3107.1 1955.6h208.8v265.1h-208.8z"/>
      <path class="st11" d="m2898.2 1955.5h197.1v265.3h-197.1z"/>
     </g>
     <g stroke="#ff5fbe" stroke-miterlimit="10" stroke-width="1.5">
      <path class="st11" d="m2644.4 2208.6v12.7z" fill="transparent"/>
      <path class="st11" d="m2643.6 2221.3 242.8-0.3 0.1-150v0.7h-194.4l-50.5 50.6v87h-0.6 4.1" fill="none"/>
      <path class="st11" d="m2416.2 2221.3v-183h129.9l88 87.4v83.5l-15.7 0.3v-0.9l0.1 12h-203.4" fill="none"/>
     </g>
     <g fill="#fff" stroke="#ff5fbe" stroke-miterlimit="10" stroke-width="1.5">
      <path class="st11" d="m2633.3 2009.4 54.8 54.6h198.4v-109.3 0.8h-253.2z"/>
      <path class="st11" d="m2193.6 1957.2h200v264.1h-200z"/>
      <path class="st11" d="m1193.1 1957.3h970.8v309.2h-970.8z"/>
      <path class="st11" d="m913.2 1950.4h254.7v230.3h-254.7z"/>
      <path class="st11" d="m4599.6 1501.5h153v264.2h-153z"/>
      <path class="st11" d="m4089.9 1501.6h153.2v151.6h-153.2z"/>
     </g>
     <path class="st11" d="m4431.1 1501.5h153.5v264.1h-203.2v-104.1l49.7-50.2v-110.5" fill="none" stroke="#ff5fbe" stroke-miterlimit="10" stroke-width="1.5"/>
     <g fill="#fff" stroke="#ff5fbe" stroke-miterlimit="10" stroke-width="1.5">
      <path class="st11" d="m4415 1605.3v-103.7h-157.4v152.1h107.8z"/>
      <path class="st11" d="m3914.2 1501.5h155.7v264.8h-155.7z"/>
      <path class="st11" d="m3738.4 1501.5h149.2v264.3h-149.2z"/>
      <path class="st11" d="m3186.6 1501.8h539.3v264h-539.3z"/>
      <path class="st11" d="m2557.6 1501.5h206.2v261.7h-206.2z"/>
      <path class="st11" d="m2434.4 1501.5h113.3v261.7h-113.3z"/>
      <path class="st11" d="m2069.9 1501.8h352v261h-352z"/>
      <path class="st11" d="m1722.6 1501.3h322.3v261.5h-322.3z"/>
      <path class="st11" d="m1533.6 1501.3h177.7v261.4h-177.7z"/>
      <path class="st11" d="m1366.1 1501.3h157v261.4h-157z"/>
      <path class="st11" d="m1193.2 1501.3h163.7v261.4h-163.7z"/>
      <path class="st11" d="m1088.1 1652.6h84.8v110.1h-84.8z"/>
      <path class="st11" d="m848.1 1652.6h230.9v109.8h-230.9z"/>
     </g>
     <path class="st11" d="m878.9 2116.4 0.2 133.3h-8.4v-0.7 33.1-0.7h8.2v262.1h0.9-294.1v-0.7l-0.1-281.8v0.7h29.3l1.3 0.1v-31.6h0.8-31.9v-114.5h294.6" fill="none" stroke="#ff5fbe" stroke-miterlimit="10" stroke-width="1.5"/>
     <g fill="#fff" stroke="#ff5fbe" stroke-miterlimit="10" stroke-width="1.5">
      <path class="st11" d="m390 2249.6h188.1v293.9h-188.1z"/>
      <path class="st11" d="m780.6 1993.5h98.3v114.7h-98.3z"/>
      <path class="st11" d="m585.2 1993.5h188.4v115.2h-188.4z"/>
      <path class="st11" d="m48.2 1993.3h174.2v193.5h-174.2z"/>
      <path class="st11" d="m229.9 1993.3h153.1v193h-153.1z"/>
     </g>
     <path class="st11" d="m48.2 2193v56.5l2.3 0.1h3.6v31.8l-1.9-0.1h-4v262.2h-0.7 335v0.7-283.2h0.7-31.3v-30.9h-0.7 31.3v-36.3h0.8-335.9" fill="none" stroke="#ff5fbe" stroke-miterlimit="10" stroke-width="1.5"/>
     <g fill="#fff" stroke="#ff5fbe" stroke-miterlimit="10" stroke-width="1.5">
      <path class="st11" d="m103.7 1764.6h278.8v195.1h-278.8z"/>
      <path class="st11" d="m103.9 1589.5h269.5v138.5h-269.5z"/>
      <path class="st11" d="m104.1 1431.5h269.1v150.4h-269.1z"/>
      <path class="st11" d="m104.1 1065.5h268.8v352h-268.8z"/>
      <path class="st11" d="m104.1 899.9h268.8v148.7h-268.8z"/>
      <path class="st11" d="m103.9 706.5h268.7v176.6h-268.7z"/>
      <path class="st11" d="m47.9 431.2h468.8v249.2h-468.8z"/>
      <path class="st11" d="m529.6 431h63.2v249.4h-63.2z"/>
     </g>
     <path class="st11" d="m592.8 137.8v254.5h-30.6v26h-197v0.7-26.7h0.4-7.1v0.7-255.3 0.8h6.7v-8.4h-0.8 197.8v8.4h-0.4 31.8" fill="none" stroke="#ff5fbe" stroke-miterlimit="10" stroke-width="1.5"/>
     <path class="st11" d="m333.2 129.4v8.8l1.4 0.1h2.6l2.4-0.1v254.4l-1.9-0.1h-4.4v-0.7 27.2-0.7h-277.7 0.7v-25.8l-2.1-0.1h-5.9v-263 0.8h285.7" fill="none" stroke="#ff5fbe" stroke-miterlimit="10" stroke-width="1.5"/>
     <g transform="translate(-40,42)">
      <g fill="none" stroke-miterlimit="10">
       <g stroke="#6f6f6f">
        <path class="st8" d="m535.6 380.9-24.1 24.2"/>
        <path class="st8" d="m475 380.9 24.1 24.2"/>
        <path class="st8" d="m418.6 731.7 24.1 24.1"/>
        <path class="st8" d="m420 790.5 24.1-24.1"/>
        <path class="st8" d="m418.9 921 24.1 24.1"/>
        <path class="st8" d="m418.9 979.9 24.1-24.1"/>
        <path class="st8" d="m418.4 1267.9 24.1 24.1"/>
        <path class="st8" d="m418.4 1328.2 24.1-24.1"/>
        <path class="st8" d="m329.6 1014.1 24.1 24.1"/>
        <path class="st8" d="m418.4 1566.4 24.1 24.1"/>
        <path class="st8" d="m418.4 1626.7 24.1-24.1"/>
        <path class="st8" d="m450.4 1762-24.1 24.1"/>
        <path class="st8" d="m475 1946.7 24.1-24.1"/>
        <path class="st8" d="m531.9 1946.7-24.1-24.1"/>
        <path class="st8" d="m1039.4 1903.5 24.1-24.1"/>
        <path class="st8" d="m1099.8 1903.5-24.1-24.1"/>
        <path class="st8" d="m1393.9 1909.2 24.1-24.1"/>
        <path class="st8" d="m1457.6 1909.2-24.1-24.1"/>
        <path class="st8" d="m1984.6 1909.2 24.1-24.1"/>
        <path class="st8" d="m2049.6 1909.2-24.1-24.1"/>
        <path class="st8" d="m2293.9 1909.2 24.1-24.1"/>
        <path class="st8" d="m2354.4 1909.2-24.1-24.1"/>
        <path class="st8" d="m2519.4 1909.2 24.1-24.1"/>
        <path class="st8" d="m2572.9 1909.2-24.1-24.1"/>
        <path class="st8" d="m2987.4 1907.8 24.1-24.1"/>
        <path class="st8" d="m3039.9 1906.9-24.1-24.1"/>
        <path class="st8" d="m3229.1 1906.9 24.1-24.1"/>
        <path class="st8" d="m3284.6 1906.9-24.1-24.1"/>
        <path class="st8" d="m3899.9 1905.7 24.2-24.1"/>
        <path class="st8" d="m3961.1 1903.8-24.1-24.1"/>
        <path class="st8" d="m4281.6 1903.8 24.1-24.1"/>
        <path class="st8" d="m4342 1903.8-24.1-24.1"/>
        <path class="st8" d="m4646.5 1903.8 24.1-24.1"/>
        <path class="st8" d="m4707.2 1903.8-24.1-24.1"/>
        <path class="st8" d="m4924.6 1903.8 24.1-24.1"/>
        <path class="st8" d="m4981.7 1903.8-24.1-24.1"/>
        <path class="st8" d="m5453.1 1977 24.1 24.1"/>
        <path class="st8" d="m5453.1 2039.5 24.1-24.1"/>
        <path class="st8" d="m5586.1 1785.3-24.1 24.1"/>
        <path class="st8" d="m5702.3 1700.7-24.1 24.1"/>
        <path class="st8" d="m5618.1 1642.2-24.1-24.1"/>
        <path class="st8" d="m5618.1 1583.3-24.1 24.1"/>
        <path class="st8" d="m5617.6 1326.9-24.1-24.1"/>
        <path class="st8" d="m5617.6 1266.5-24.1 24.1"/>
        <path class="st8" d="m5617.6 983.5-24.1-24.1"/>
        <path class="st8" d="m5617.6 923.1-24.1 24.1"/>
        <path class="st8" d="m5618.1 781.1-24.1-24.1"/>
        <path class="st8" d="m5618.1 721.1-24.1 24.1"/>
        <path class="st8" d="m5572.3 657.3-24.1-24.1"/>
        <path class="st8" d="m5469.3 655.5 24.1 24.1"/>
        <path class="st8" d="m5457.2 837.1 24.1 24.1"/>
        <path class="st8" d="m5436.5 1319.5 24.1 24.1"/>
        <path class="st8" d="m5436.5 1379.5 24.1-24.1"/>
        <path class="st8" d="m5139.2 1665 24.4-25.3"/>
        <path class="st8" d="m5071.8 1728.2 24.1 24.1"/>
        <path class="st8" d="m4589.9 1729.1-24.1 24.1"/>
        <path class="st8" d="m4528.6 1729.1 24.1 24.1"/>
        <path class="st8" d="m4253.2 1729.9-24.1 24.1"/>
        <path class="st8" d="m4192 1729.9 24.1 24.1"/>
        <path class="st8" d="m3873.6 1729.1-24.1 24.1"/>
        <path class="st8" d="m3813.2 1729.1 24.1 24.1"/>
        <path class="st8" d="m2616.7 1674.9-24.1 24.1"/>
        <path class="st8" d="m2032.8 1729.1-24.1 24.1"/>
        <path class="st8" d="m1972.5 1729.1 24.1 24.1"/>
        <path class="st8" d="m1674 1729.1-24.1 24.1"/>
        <path class="st8" d="m1613.5 1729.1 24.1 24.1"/>
        <path class="st8" d="m1351.6 1729.1-24.1 24.1"/>
        <path class="st8" d="m1291.2 1729.1 24.1 24.1"/>
        <path class="st8" d="m978.3 1729.7-24.1 24.1"/>
        <path class="st8" d="m717.8 1690.4-24.1 24.1"/>
        <path class="st8" d="m651.8 1546.4 24.1 24.1"/>
        <path class="st8" d="m660.6 1566-24.1 24.1"/>
        <path class="st8" d="m723.8 1529.5 24.1 24.1"/>
        <path class="st8" d="m608.6 1494 24.1 24.1"/>
        <path class="st8" d="m593.9 1450.1-24.1-24.1"/>
        <path class="st8" d="m593.9 1395.5-24.1 24.1"/>
        <path class="st8" d="m5547.4 243.7-24.1 24.1"/>
        <path class="st8" d="m5597.3 437.4 24.1 24.1"/>
        <path class="st8" d="m5628.8 206.7 24.1 24.1"/>
        <path class="st8" d="m5423.9 205.4-24.2 24.1"/>
        <path class="st8" d="m5456.9 438.7-24.2 24"/>
        <path class="st8" d="m5635.2 520.2-24.2 24"/>
        <path class="st8" d="m5421 521.4 24.1 24.2"/>
        <path class="st8" d="m5355.7 1073 24.1 24.1"/>
        <path class="st8" d="m5322.2 1380.5 24.1-24.1"/>
        <path class="st8" d="m5340.2 1491.9 18.1-18.1"/>
        <path class="st8" d="m5340.2 1547.2 18.1-18.2"/>
        <path class="st8" d="m5340.7 1603.4 18.1-18.2"/>
        <path class="st8" d="m5340.2 1657.8 18.1-18.1"/>
        <path class="st8" d="m5578.6 1985.4 24.1 24.1"/>
        <path class="st8" d="m5576.7 2241.9 24.1 24.1"/>
        <path class="st8" d="m5524.5 2257.8 24.1 24.1"/>
        <path class="st8" d="m5452.8 2264.4 24.1-24.1"/>
        <path class="st8" d="m3473.7 1907.8 24.1-24.1"/>
        <path class="st8" d="m3529.2 1907.8-24.1-24.1"/>
        <path class="st8" d="m2495.6 1993.2 24.1-24.1"/>
        <path class="st8" d="m2645.5 1943.3 24.1-24.1"/>
        <path class="st8" d="m2687.2 2070.2 24.1-24.1"/>
        <path class="st8" d="m621.9 2171.3-24.1-24.1"/>
        <path class="st8" d="m621.9 2118.7-24.1 24.1"/>
        <path class="st8" d="m621.9 2041.5-24.1-24.1"/>
        <path class="st8" d="m621.9 1990.5-24.1 24.1"/>
        <path class="st8" d="m816.8 1987.5-24.1 24.1"/>
        <path class="st8" d="m426.3 1989.8 24.1 24.1"/>
        <path class="st8" d="m426.3 2042.5 24.1-24.1"/>
        <path class="st8" d="m266.1 2029 24.1-24.1"/>
        <path class="st8" d="m344.3 2149.8 24.1-24.1"/>
        <path class="st8" d="m453.9 2204.3 24.1-24.1"/>
        <path class="st8" d="m426.3 1731.7 24.1 24.1"/>
        <path class="st8" d="m4897.6 1734.9 24.1 24.1"/>
        <path class="st8" d="m4766 1737.5-24.1 24.1"/>
        <path class="st8" d="m4704.7 1737.5 24.1 24.1"/>
        <path class="st8" d="m4063.4 1737.5-24.1 24.1"/>
        <path class="st8" d="m4002.2 1737.5 24.1 24.1"/>
        <path class="st8" d="m4204 1620.5 24.1 24.1"/>
        <path class="st8" d="m4372.6 1618.7-24.1 24.1"/>
        <path class="st8" d="m4413.2 1653.9-24.1 24.1"/>
        <path class="st8" d="m3687.4 1737.5-24.1 24.1"/>
        <path class="st8" d="m3626.2 1737.5 24.1 24.1"/>
        <path class="st8" d="m2779.9 1737.8-24.1 24.1"/>
        <path class="st8" d="m2719.5 1735.8 24.1 24.1"/>
        <path class="st8" d="m2428 1731.1-24.1 24.1"/>
        <path class="st8" d="m2367.6 1729.1 24.1 24.1"/>
        <path class="st8" d="m1757 1604.2-24.1 24.1"/>
        <path class="st8" d="m1123.5 1642.1-24.1 24.1"/>
        <path class="st8" d="m875.4 1623.7 24.1 24.1"/>
        <path class="st8" d="m587.4 1222.6-24.1-24.1"/>
        <path class="st8" d="m587.4 1167.9-24.1 24.1"/>
        <path class="st8" d="m587.4 1019.4-24.1-24.1"/>
        <path class="st8" d="m587.4 964.7-24.1 24.1"/>
        <path class="st8" d="m337.6 1543.7 24.1 24.1"/>
        <path class="st8" d="m495.9 644.8 24.1 24.1"/>
        <path class="st8" d="m563.1 537-24.1 24.1"/>
        <path class="st8" d="m242.9 382 24.1 24.1"/>
        <path class="st8" d="m297.2 382-24.1 24.1"/>
        <path class="st8" d="m5445.6 1208.5 24.1-24.1"/>
        <path class="st8" d="m1536.2 1737.7-24.1 24.1"/>
        <path class="st8" d="m1475.8 1737.7 24.1 24.1"/>
       </g>
       <g stroke="#9c9c9c">
        <path class="st5" d="m5253.4 731.6v-61.1l-13.7-6.8v67.9z"/>
        <path class="st5" d="m5253.4 731.6h13.8v-53.4l-13.8-7.7z"/>
        <path class="st5" d="m5267.2 731.6h13.7v-45.8l-13.7-7.6z"/>
        <path class="st5" d="m5280.9 731.6h13.7v-38.2l-13.7-7.6z"/>
        <path class="st5" d="m5294.6 731.6h13.8v-30.6l-13.8-7.6z"/>
        <path class="st5" d="m5308.4 731.6h13.7v-22.9l-13.7-7.7z"/>
        <path class="st5" d="m5322.1 731.6h13.7v-15.3l-13.7-7.6z"/>
        <path class="st5" d="m5335.8 731.6h13.8v-7.7l-13.8-7.6z"/>
        <path class="st5" d="m5363.3 731.6-13.7-7.7v7.7z"/>
        <path class="st5" d="m5239.7 663.7h8.8l114.8 63v4.9z"/>
        <path class="st5" d="m5166.4 736.1h69.1v13.7h-69.1z"/>
        <path class="st5" d="m5166.4 749.9h69.1v13.7h-69.1z"/>
        <path class="st5" d="m5166.4 763.6h69.1v13.7h-69.1z"/>
        <path class="st5" d="m5166.4 777.4h69.1v13.7h-69.1z"/>
        <path class="st5" d="m5166.4 791.1h69.1v13.7h-69.1z"/>
        <path class="st5" d="m5166.4 804.8h69.1v13.7h-69.1z"/>
        <path class="st5" d="m5349.6 823.1h13.7v67.8h-13.7z"/>
        <path class="st5" d="m5335.8 823.1h13.7v67.8h-13.7z"/>
        <path class="st5" d="m5322.1 823.1h13.7v67.8h-13.7z"/>
        <path class="st5" d="m5308.4 823.1h13.8v67.8h-13.8z"/>
        <path class="st5" d="m5294.6 823.1h13.8v67.8h-13.8z"/>
        <path class="st5" d="m5280.9 823.1h13.7v67.8h-13.7z"/>
        <path class="st5" d="m5267.2 823.1h13.7v67.8h-13.7z"/>
        <path class="st5" d="m5253.4 823.1h13.8v67.8h-13.8z"/>
        <path class="st5" d="m5239.7 823.1h13.7v67.8h-13.7z"/>
       </g>
       <path class="st6" d="m5235.1 731.6h132.8v91.6h-132.8z" stroke="#707070"/>
       <path class="st6" d="m5239.7 736.1h123.6v82.4h-123.6z" stroke="#707070"/>
      </g>
      <path class="st7" d="m795.6 661.2v71.9" fill="#716f6f" stroke="#6f6f6f" stroke-miterlimit="10"/>
      <path class="st8" d="m780.2 733.1v-70.7l-114.5 70.7" fill="none" stroke="#6f6f6f" stroke-miterlimit="10"/>
      <g fill="#716f6f" stroke="#6f6f6f" stroke-miterlimit="10">
       <path class="st7" d="m768.2 669.8v63.3"/>
       <path class="st7" d="m754.5 678v55.1"/>
       <path class="st7" d="m742.9 685.5v47.6"/>
       <path class="st7" d="m729.8 693.5v39.6"/>
       <path class="st7" d="m718.9 700.2v32.9"/>
       <path class="st7" d="m705.1 708.4v24.7"/>
       <path class="st7" d="m692.1 716.3v16.8"/>
       <path class="st7" d="m862.7 733.1h-67.2"/>
       <path class="st7" d="m795.7 744h68.8"/>
       <path class="st7" d="m795.5 756.7h67.2"/>
       <path class="st7" d="m795.7 770.1h68.8"/>
       <path class="st7" d="m864.5 782h-68.8"/>
       <path class="st7" d="m795.7 794.9h68.8"/>
       <path class="st7" d="m795.7 806.9h66.9"/>
       <path class="st7" d="m793.9 816.6h68.7"/>
       <path class="st7" d="m780.7 816.7-0.2 74.1"/>
       <path class="st7" d="m768 816.7-0.2 76"/>
       <path class="st7" d="m754.6 816.6-0.2 74.1"/>
       <path class="st7" d="m742.5 890.7 0.2-74"/>
       <path class="st7" d="m729.8 816.6-0.2 74"/>
       <path class="st7" d="m717.1 816.6-0.2 74"/>
       <path class="st7" d="m703.7 816.6-0.2 74"/>
       <path class="st7" d="m692.1 816.7-0.2 74"/>
       <path class="st7" d="m679.4 816.7-0.2 76"/>
       <path class="st7" d="m664 816.6-0.2 74"/>
      </g>
      <path d="m664 663-0.1 153.6 131.8 0.1v-83.6h-131.8" fill="none" stroke="#6f6f6f" stroke-miterlimit="10" stroke-width="2"/>
      <path class="st7" d="m795.7 816.7v73.7" fill="#716f6f" stroke="#6f6f6f" stroke-miterlimit="10"/>
      <g fill="none" stroke-miterlimit="10">
       <g stroke="#9c9c9c">
        <path class="st5" d="m2898.3 1468.9h-75.5v13.7h75.5v13.7h-75.5v13.8h75.5v13.7h-75.5v13.7h75.5v13.8h-75.5v13.7h75.5l-15.1 13.8h-60.4v13.7h45.3l-15.1 13.7h-30.2v13.8h15.1l-15.1 13.7 82.4-74.9"/>
        <path class="st5" d="m2939.5 1468.9h151.1v13.7h-151.1v13.7h151.1v13.8h-151.1v13.7h151.1v13.7h-151.1v13.8h151.1v13.7h-151.1v13.8h151.1v13.7h-151.1v13.7h151.1v13.8h-151.1"/>
        <path class="st5" d="m3125 1558.8 82.4 74.9-15.1-13.7h15.1v-13.8h-30.2l-15.1-13.7h45.3v-13.7h-60.4l-15.2-13.8h75.6v-13.7h-75.6v-13.8h75.6v-13.7h-75.6v-13.7h75.6v-13.8h-75.6v-13.7h75.6v-13.7h-75.6"/>
       </g>
       <path class="st6" d="m2905.2 1558.8v-89.9h27.5v155.7h6.8v-162.6h-41.2v103z" stroke="#707070"/>
       <path class="st6" d="m3131.8 1565-6.8-6.2v-89.9h-27.5v155.7h-6.9v-162.6h41.2z" stroke="#707070"/>
      </g>
      <g fill="#fff" stroke="#828181" stroke-miterlimit="10">
       <path class="st4" d="m5131.9 732.8h5v71.9h-5z"/>
       <path class="st4" d="m5136.8 728.1h28.9v81.3h-28.9z"/>
       <path class="st4" d="m864.5 715.1h29.5v81.3h-29.5z"/>
       <path class="st4" d="m894 719.8h4.3v71.9h-4.3z"/>
      </g>
      <g id="внутр_стены" fill="#fff">
       <path class="st2" transform="rotate(-44.947 5388.7 241.78)" d="m5383.8 236.2h10.5v11.1h-10.5z"/>
       <path class="st2" d="m5459 314.8h10.5v11.6h-10.5z"/>
       <path class="st2" transform="rotate(-44.947 5461.4 314.4)" d="m5456.5 308.7h10.5v11.4h-10.5z"/>
       <path class="st2" transform="rotate(45.053 5390.1 238.8)" d="m5385.1 232.5h10.5v12.5h-10.5z"/>
       <path class="st2" transform="rotate(45.053 5389.4 242.4)" d="m5385 237.2h9.4v10.5h-9.4z"/>
       <path class="st2" d="m5379.1 234.1h9.4v10.5h-9.4z"/>
       <path class="st2" d="m5459 421.8h10.5v11.6h-10.5z"/>
       <path class="st2" transform="rotate(45.053 5461.7 433.43)" d="m5456.7 428h10.5v10.9h-10.5z"/>
       <path class="st2" d="m5415.4 469.9h10.5v10.9h-10.5z"/>
       <path class="st2" transform="rotate(-89.947 5418.7 471.04)" d="m5413.5 464.8h10.5v12.4h-10.5z"/>
       <path class="st2" transform="rotate(225.05 5423.6 470.66)" d="m5418.6 466h10.5v9.4h-10.5z"/>
       <path class="st2" transform="rotate(-89.947 5420.6 600.1)" d="m5415.4 594.9h10.5v10.3h-10.5z"/>
       <path class="st2" transform="rotate(225.05 5422.8 605.14)" d="m5417.8 599.8h10.5v10.8h-10.5z"/>
       <path class="st2" transform="rotate(45.053 5429.6 200.76)" d="m5424.7 195.5h10.5v10.5h-10.5z"/>
       <path class="st2" transform="rotate(135.05 5435.4 202.17)" d="m5430.5 194.7h10.5v14.8h-10.5z"/>
       <path class="st2" d="m5427.5 189.1h10.5v10.5h-10.5z"/>
       <path class="st2" transform="rotate(135.05 5473.4 240.18)" d="m5468.5 233h10.5v14.4h-10.5z"/>
       <path class="st2" transform="rotate(90.053 5482.7 243.69)" d="m5477.5 236.1h10.5v15.1h-10.5z"/>
       <path class="st2" transform="rotate(90.053 5482.7 243.69)" d="m5477.5 236.1h10.5v15.1h-10.5z"/>
       <path class="st2" transform="rotate(90.053,5571.6,243.69)" d="m5566.3 236.1h10.5v15.3h-10.5z"/>
       <path class="st2" transform="rotate(45.053 5580.5 239.91)" d="m5575.6 232.3h10.5v15.1h-10.5z"/>
       <path class="st2" transform="rotate(45.053 5618.5 201.91)" d="m5613.6 193.1h10.5v17.6h-10.5z"/>
       <path class="st2" transform="rotate(-44.947 5622 200.74)" d="m5616.8 193.9h11.1v13.8h-11.1z"/>
       <path class="st2" d="m5615.2 190.1h10.5v13.8h-10.5z"/>
       <path class="st2" transform="rotate(-44.947 5663.7 236.87)" d="m5658.5 230h11.1v13.8h-11.1z"/>
       <path class="st2" transform="rotate(45.053 5661.5 243.95)" d="m5656.5 237.1h10.5v13.8h-10.5z"/>
       <path class="st2" transform="rotate(90.053 5671.9 239.35)" d="m5666.6 232.5h10.5v13.8h-10.5z"/>
       <path class="st2" transform="rotate(45.053 5592 313.42)" d="m5587.1 306.5h10.5v13.8h-10.5z"/>
       <path class="st2" d="m5584.3 315.1h10.5v12.6h-10.5z"/>
       <path class="st2" d="m5584.3 419.6h10.5v13.8h-10.5z"/>
       <path class="st2" transform="rotate(-44.947 5591.5 433.05)" d="m5586.3 428h11.1v10.1h-11.1z"/>
       <path class="st2" transform="rotate(-44.944 5634.3 470.05)" d="m5628.3 465.1h11.1v10.1h-11.1z"/>
       <path class="st2" transform="rotate(-89.947 5638.2 468.29)" d="m5632.9 463.2h10.6v10.1h-10.6z"/>
       <path class="st2" d="m5629.7 471.3h10.6v10.1h-10.6z"/>
       <path class="st2" d="m5630.1 594.6h10.6v10.5h-10.6z"/>
       <path class="st2" transform="rotate(45.057 5632.9 604.81)" d="m5628 599.8h10.6v10.5h-10.6z"/>
       <path class="st2" transform="rotate(-89.947 5322.2 1272.8)" d="m5318.6 1266h7.3v13.7h-7.3z"/>
       <path class="st2" d="m5317.5 1273.1h9.5v13.7h-9.5z"/>
       <path class="st2" d="m5317.5 1442.8h9.5v13.7h-9.5z"/>
       <path class="st2" transform="rotate(90.053 5323 1453.2)" d="m5318.3 1446.3h9.5v13.7h-9.5z"/>
       <path class="st2" d="m5353.6 1449.7h9.5v9.3h-9.5z"/>
       <path class="st2" d="m5355.6 1456.7h5.3v9.3h-5.3z"/>
       <path class="st2" d="m5355.7 1509.9h5.3v9.3h-5.3z"/>
       <path class="st2" d="m5355.7 1565.3h5.3v9.3h-5.3z"/>
       <path class="st2" d="m5355.7 1619.7h5.3v9.3h-5.3z"/>
       <path class="st2" d="m5356.8 1513.9h9.3v3.3h-9.3z"/>
       <path class="st2" d="m5358 1569.1h9.3v3.3h-9.3z"/>
       <path class="st2" d="m5357.5 1623.6h9.3v3.3h-9.3z"/>
       <path class="st2" transform="rotate(90.053 5606.5 2219.9)" d="m5597 2215.3h19.1v9.3h-19.1z"/>
       <path class="st2" transform="rotate(90.053 5598.7 2283.1)" d="m5588.7 2279.5h20.1v7.2h-20.1z"/>
       <path class="st2" transform="rotate(180 5593.3 2282)" d="m5585.7 2274.5h15.1v15.1h-15.1z"/>
       <path class="st2" transform="rotate(180 5457.4 2281.9)" d="m5449.8 2274.4h15.1v15.1h-15.1z"/>
       <path class="st2" transform="rotate(90.053 5454.2 2281.9)" d="m5444.2 2278.3h20.1v7.2h-20.1z"/>
       <path class="st2" d="m2927.1 2020.7h6.4v10.9h-6.4z"/>
       <path class="st2" transform="rotate(90.053 2923.8 2025.7)" d="m2920.5 2020.3h6.5v10.9h-6.5z"/>
       <path class="st2" transform="rotate(-44.947 2723.2 2022.4)" d="m2720.1 2017.1h6.5v10.9h-6.5z"/>
       <path class="st2" transform="rotate(45.053 2726.3 2029.4)" d="m2723.2 2024h6.5v10.9h-6.5z"/>
       <path class="st2" transform="rotate(90.053 2730.4 2025.7)" d="m2727.2 2020.2h6.5v10.9h-6.5z"/>
       <path class="st2" transform="rotate(180 2669.6 1964.4)" d="m2666.3 1958.7h6.5v11.4h-6.5z"/>
       <path class="st2" transform="rotate(135.05 2672.2 1971.4)" d="m2669.2 1966.3h6.5v10.5h-6.5z"/>
       <path class="st2" transform="rotate(90.053 2584 1992.5)" d="m2580.7 1986.9h6.5v11.2h-6.5z"/>
       <path class="st2" transform="rotate(135.06 2590.9 1995)" d="m2587.6 1990.2h6.5v9.8h-6.5z"/>
       <path class="st2" transform="rotate(180 2677.8 2085)" d="m2674.5 2079.6h6.5v10.9h-6.5z"/>
       <path class="st2" transform="rotate(45.053 2678.1 2078.4)" d="m2675 2073h6.5v10.9h-6.5z"/>
       <path class="st2" transform="rotate(135.06 2674.6 2078.8)" d="m2671.3 2073.4h6.5v10.9h-6.5z"/>
       <path class="st2" transform="rotate(180 816.81 2067.1)" d="m813.5 2062.2h6.5v9.8h-6.5z"/>
       <path class="st2" transform="rotate(90.053 816.81 2069.9)" d="m813.5 2065h6.5v9.8h-6.5z"/>
       <path class="st2" transform="rotate(180 621.88 2069.5)" d="m618.6 2064.5h6.5v9.8h-6.5z"/>
       <path class="st2" transform="rotate(-89.947 624.46 2069.9)" d="m621.2 2065h6.5v9.8h-6.5z"/>
       <path class="st2" transform="rotate(180 621.88 2203.8)" d="m618.6 2198.9h6.5v9.8h-6.5z"/>
       <path class="st2" transform="rotate(-89.947 618.13 2203.8)" d="m614.9 2198.9h6.5v9.8h-6.5z"/>
       <path class="st2" transform="rotate(180 426.26 2203.8)" d="m423 2198.9h6.5v9.8h-6.5z"/>
       <path class="st2" transform="rotate(-89.947 431.18 2203.8)" d="m427.9 2198.9h6.5v9.8h-6.5z"/>
       <path class="st2" transform="rotate(180 426.26 2147.5)" d="m423 2142.5h6.5v9.8h-6.5z"/>
       <path class="st2" transform="rotate(90.053 419.38 2148)" d="m416.1 2143.1h6.5v9.8h-6.5z"/>
       <path class="st2" transform="rotate(180 266.15 2145)" d="m262.9 2140.1h6.5v9.8h-6.5z"/>
       <path class="st2" transform="rotate(-89.947 266.63 2148)" d="m263.4 2143.1h6.5v9.8h-6.5z"/>
       <path class="st2" d="m4455 1549.3h15.5v19.7h-15.5z"/>
       <path class="st2" transform="rotate(45.057 4458.5 1569.8)" d="m4451 1560.8h15.5v18.4h-15.5z"/>
       <path class="st2" d="m4405.4 1611.7h15.5v25.8h-15.5z"/>
       <path class="st2" transform="rotate(45.053 4416.2 1612.1)" d="m4408.7 1599.3h15.5v25.8h-15.5z"/>
       <path class="st2" transform="rotate(90.053 4405.4 1619.5)" d="m4397.6 1606.5h15.5v25.8h-15.5z"/>
       <path class="st2" d="m4283.5 1599.9h13.5v25.8h-13.5z"/>
       <path class="st2" transform="rotate(90.053 4291.3 1618.4)" d="m4284.5 1605.5h13.5v25.8h-13.5z"/>
       <path class="st2" d="m633.4 409.2h14.4v27.9h-14.4z"/>
       <path class="st2" transform="rotate(90.053 562 382.75)" d="m556.6 368.8h10.7v27.9h-10.7z"/>
       <path class="st2" d="m557.5 380.9h11.3v16.2h-11.3z"/>
      </g>
      <g id="капитальные" fill="#fff">
       <path class="st2" d="m4897.6 1714h36.5v45h-36.5z"/>
       <path class="st2" d="m4704.7 1716.6h61.3v45h-61.3z"/>
       <path class="st2" d="m4002.2 1716.6h61.3v45h-61.3z"/>
       <path class="st2" d="m3626.2 1716.6h61.3v45h-61.3z"/>
       <path class="st2" d="m2719 1718.7h61.3v45h-61.3z"/>
       <path class="st2" d="m848.3 1623.7h61.3v40.8h-61.3z"/>
       <path class="st2" d="m561.3 1171.1h61.3v48.5h-61.3z"/>
       <path class="st2" d="m544.7 967.8h61.3v48.5h-61.3z"/>
       <path class="st2" d="m5427.3 1156.7h36.5v51.8h-36.5z"/>
       <path class="st2" d="m1475.4 1718.7h61.3v45h-61.3z"/>
      </g>
      <g id="окна" fill="#fff" stroke="#828181" stroke-miterlimit="10">
       <path class="st4" d="m227.3 48.5h94.8v38.5h-94.8z"/>
       <path class="st4" d="m231.9 42.1h85.6v6.4h-85.6z"/>
       <path class="st4" d="m215 42.1v-42.1h119.5v42.1h-5.5v-36.6h-108.5v36.6z"/>
       <path class="st4" d="m460.8 42.1h85.6v6.4h-85.6z"/>
       <path class="st4" d="m456.3 48.5h94.8v38.5h-94.8z"/>
       <path class="st4" d="m449.4 42.1v-36.6h108.5v36.6h5.5v-42.1h-119.5v42.1z"/>
       <path class="st4" d="m672.8 0v42.1h5.5v-36.6h108.5v36.6h5.6v-42.1z"/>
       <path class="st4" d="m689.8 42.1h85.6v6.4h-85.6z"/>
       <path class="st4" d="m685.2 48.5h94.8v38.5h-94.8z"/>
       <path class="st4" d="m1007.3 192.1h-42.1v5.5h36.6v108.5h-36.6v5.5h42.1z"/>
       <path class="st4" d="m958.8 209h6.4v85.6h-6.4z"/>
       <path class="st4" d="m920.3 204.4h38.5v94.8h-38.5z"/>
       <path class="st4" d="m1007.3 421h-42.1v5.5h36.6v108.5h-36.6v5.5h42.1z"/>
       <path class="st4" d="m958.8 437.9h6.4v85.6h-6.4z"/>
       <path class="st4" d="m920.3 433.4h38.5v94.8h-38.5z"/>
       <path class="st4" d="m0 540.5h42.1v-5.5h-36.6v-108.5h36.6v-5.5h-42.1z"/>
       <path class="st4" d="m42.1 438h6.4v85.6h-6.4z"/>
       <path class="st4" d="m48.5 433.4h38.5v94.8h-38.5z"/>
       <path class="st4" d="m0 311.6h42.1v-5.5h-36.6v-108.5h36.6v-5.5h-42.1z"/>
       <path class="st4" d="m42.1 209h6.4v85.6h-6.4z"/>
       <path class="st4" d="m48.5 204.4h38.5v94.8h-38.5z"/>
       <path class="st4" d="m108.9 906.2h34v81.3h-34z"/>
       <path class="st4" d="m103.9 910.9h5v71.9h-5z"/>
       <path class="st4" d="m103.9 892.6v-5.5h-42.1v119.5h42.1v-5.5h-36.6v-108.5z"/>
       <path class="st4" d="m108.9 1080.2h34v81.3h-34z"/>
       <path class="st4" d="m103.9 1084.9h5v71.9h-5z"/>
       <path class="st4" d="m103.9 1066.6v-5.5h-42.1v119.5h42.1v-5.5h-36.6v-108.5z"/>
       <path class="st4" d="m108.9 1254.2h34v81.3h-34z"/>
       <path class="st4" d="m103.9 1258.9h5v71.9h-5z"/>
       <path class="st4" d="m103.9 1240.6v-5.5h-42.1v119.5h42.1v-5.5h-36.6v-108.5z"/>
       <path class="st4" d="m108.9 1428.2h34v81.3h-34z"/>
       <path class="st4" d="m103.9 1432.9h5v71.9h-5z"/>
       <path class="st4" d="m103.9 1414.6v-5.5h-42.1v119.5h42.1v-5.5h-36.6v-108.5z"/>
       <path class="st4" d="m108.9 1602.2h34v81.3h-34z"/>
       <path class="st4" d="m103.9 1606.9h5v71.9h-5z"/>
       <path class="st4" d="m103.9 1588.6v-5.5h-42.1v119.5h42.1v-5.5h-36.6v-108.5z"/>
       <path class="st4" d="m108.9 1776.2h34v81.3h-34z"/>
       <path class="st4" d="m103.9 1780.9h5v71.9h-5z"/>
       <path class="st4" d="m103.9 1762.6v-5.5h-42.1v119.5h42.1v-5.5h-36.6v-108.5z"/>
       <path class="st4" d="m0 2168.7h42.1v-5.5h-36.6v-108.5h36.6v-5.5h-42.1z"/>
       <path class="st4" d="m42.1 2066.2h6.4v85.6h-6.4z"/>
       <path class="st4" d="m48.5 2061.6h38.5v94.8h-38.5z"/>
       <path class="st4" d="m0 2397.7h42.1v-5.5h-36.6v-108.5h36.6v-5.5h-42.1z"/>
       <path class="st4" d="m42.1 2295.1h6.4v85.6h-6.4z"/>
       <path class="st4" d="m48.5 2290.5h38.5v94.8h-38.5z"/>
       <path class="st4" d="m334.5 2589.7v-42.1h-5.5v36.6h-108.5v-36.6h-5.5v42.1z"/>
       <path class="st4" d="m231.9 2541.2h85.6v6.4h-85.6z"/>
       <path class="st4" d="m227.3 2502.7h94.8v38.5h-94.8z"/>
       <path class="st4" d="m563.4 2589.7v-42.1h-5.5v36.6h-108.5v-36.6h-5.5v42.1z"/>
       <path class="st4" d="m460.9 2541.2h85.6v6.4h-85.6z"/>
       <path class="st4" d="m456.3 2502.7h94.8v38.5h-94.8z"/>
       <path class="st4" d="m792.4 2589.7v-42.1h-5.5v36.6h-108.6v-36.6h-5.5v42.1z"/>
       <path class="st4" d="m689.8 2541.2h85.6v6.4h-85.6z"/>
       <path class="st4" d="m685.2 2502.7h94.8v38.5h-94.8z"/>
       <path class="st4" d="m1007.3 2278.2h-42.1v5.4h36.6v108.6h-36.6v5.5h42.1z"/>
       <path class="st4" d="m958.8 2295.1h6.4v85.6h-6.4z"/>
       <path class="st4" d="m920.3 2290.5h38.5v94.8h-38.5z"/>
       <path class="st4" d="m1028.5 2138.7h95v28.9h-95z"/>
       <path class="st4" d="m1033.2 2167.7h85.6v4.9h-85.6z"/>
       <path class="st4" d="m1021.7 2172.6v36.7h108.6v-36.7h5.5v42.1h-119.6v-42.1z"/>
       <path class="st4" d="m1365.1 2225.7h94.8v38.5h-94.8z"/>
       <path class="st4" d="m1369.7 2264.2h85.6v6.4h-85.6z"/>
       <path class="st4" d="m1358.3 2270.6v36.6h108.5v-36.6h5.5v42.1h-119.5v-42.1z"/>
       <path class="st4" d="m1594.1 2225.7h94.8v38.5h-94.8z"/>
       <path class="st4" d="m1598.7 2264.2h85.6v6.4h-85.6z"/>
       <path class="st4" d="m1587.2 2270.6v36.6h108.5v-36.6h5.5v42.1h-119.5v-42.1z"/>
       <path class="st4" d="m1823 2225.7h94.8v38.5h-94.8z"/>
       <path class="st4" d="m1827.6 2264.2h85.6v6.4h-85.6z"/>
       <path class="st4" d="m1816.2 2270.6v36.6h108.5v-36.6h5.5v42.1h-119.5v-42.1z"/>
       <path class="st4" d="m2052 2225.7h94.8v38.5h-94.8z"/>
       <path class="st4" d="m2056.5 2264.2h85.6v6.4h-85.6z"/>
       <path class="st4" d="m2045.1 2270.6v36.6h108.5v-36.6h5.5v42.1h-119.5v-42.1z"/>
       <path class="st4" d="m2280.7 2180h95.1v32.8h-95.1z"/>
       <path class="st4" d="m2285.5 2212.7h85.6v6.6h-85.6z"/>
       <path class="st4" d="m2510.2 2180h95.1v32.8h-95.1z"/>
       <path class="st4" d="m2514.9 2212.7h85.6v6.6h-85.6z"/>
       <path class="st4" d="m3425.4 2180h95.1v32.8h-95.1z"/>
       <path class="st4" d="m3430.1 2212.7h85.6v6.6h-85.6z"/>
       <path class="st4" d="m3654.4 2180h95.1v32.8h-95.1z"/>
       <path class="st4" d="m3659.1 2212.7h85.6v6.6h-85.6z"/>
       <path class="st4" d="m3883.4 2225.7h94.8v38.5h-94.8z"/>
       <path class="st4" d="m3888 2264.2h85.7v6.4h-85.7z"/>
       <path class="st4" d="m3876.6 2270.6v36.6h108.5v-36.6h5.5v42.1h-119.5v-42.1z"/>
       <path class="st4" d="m4112.4 2225.7h94.8v38.5h-94.8z"/>
       <path class="st4" d="m4117 2264.2h85.7v6.4h-85.7z"/>
       <path class="st4" d="m4105.6 2270.6v36.6h108.4v-36.6h5.5v42.1h-119.5v-42.1z"/>
       <path class="st4" d="m4341.3 2225.7h94.8v38.5h-94.8z"/>
       <path class="st4" d="m4345.9 2264.2h85.7v6.4h-85.7z"/>
       <path class="st4" d="m4334.5 2270.6v36.6h108.5v-36.6h5.5v42.1h-119.5v-42.1z"/>
       <path class="st4" d="m4570.3 2225.7h94.8v38.5h-94.8z"/>
       <path class="st4" d="m4574.9 2264.2h85.7v6.4h-85.7z"/>
       <path class="st4" d="m4563.4 2270.6v36.6h108.5v-36.6h5.5v42.1h-119.5v-42.1z"/>
       <path class="st4" d="m4906.7 2138.7h95v28.9h-95z"/>
       <path class="st4" d="m4911.4 2167.7h85.6v4.9h-85.6z"/>
       <path class="st4" d="m4899.9 2172.6v36.7h108.5v-36.7h5.5v42.1h-119.5v-42.1z"/>
       <path class="st4" d="m5071.4 2290.5h38.4v94.7h-38.4z"/>
       <path class="st4" d="m5065 2295.1h6.4v85.6h-6.4z"/>
       <path class="st4" d="m5065 2283.6v-5.4h-42.1v119.5h42.1v-5.5h-36.6v-108.6z"/>
       <path class="st4" d="m5250.2 2502.7h94.8v38.5h-94.8z"/>
       <path class="st4" d="m5243.4 2547.6v36.6h108.5v-36.6h5.4v42.1h-119.5v-42.1z"/>
       <path class="st4" d="m5340.4 2547.6v-6.4h-85.6v6.4z"/>
       <path class="st4" d="m5483.8 2541.2h85.6v6.4h-85.6z"/>
       <path class="st4" d="m5479.1 2502.7h94.8v38.5h-94.8z"/>
       <path class="st4" d="m5466.8 2547.6h5.5v36.6h108.5v-36.6h5.5v42.1h-119.5z"/>
       <path class="st4" d="m5712.7 2541.2h85.6v6.4h-85.6z"/>
       <path class="st4" d="m5708.1 2502.7h94.8v38.5h-94.8z"/>
       <path class="st4" d="m5695.7 2547.6h5.5v36.6h108.5v-36.6h5.5v42.1h-119.5z"/>
       <path class="st4" d="m5981.7 2295.1h6.4v85.6h-6.4z"/>
       <path class="st4" d="m5943.2 2290.5h38.5v94.8h-38.5z"/>
       <path class="st4" d="m5988.1 2397.7v-5.5h36.6v-108.5h-36.6v-5.6h42.1v119.6z"/>
       <path class="st4" d="m5981.7 2066.2h6.4v85.6h-6.4z"/>
       <path class="st4" d="m5943.2 2061.6h38.5v94.8h-38.5z"/>
       <path class="st4" d="m5988.1 2168.7v-5.5h36.6v-108.5h-36.6v-5.5h42.1v119.5z"/>
       <path class="st4" d="m5921.3 1780.9h5v71.9h-5z"/>
       <path class="st4" d="m5887.4 1776.2h33.9v81.3h-33.9z"/>
       <path class="st4" d="m5926.2 1757.1v5.5h36.7v108.5h-36.7v5.5h42.2v-119.5z"/>
       <path class="st4" d="m5921.3 1606.9h5v71.9h-5z"/>
       <path class="st4" d="m5887.4 1602.2h33.9v81.3h-33.9z"/>
       <path class="st4" d="m5921.3 1432.9h4.9v71.9h-4.9z"/>
       <path class="st4" d="m5887.4 1428.2h33.9v81.3h-33.9z"/>
       <path class="st4" d="m5921.3 1258.9h5v71.9h-5z"/>
       <path class="st4" d="m5887.4 1254.2h33.9v81.3h-33.9z"/>
       <path class="st4" d="m5921.3 1084.9h5v71.9h-5z"/>
       <path class="st4" d="m5887.4 1080.2h33.9v81.3h-33.9z"/>
       <path class="st4" d="m5921.3 910.9h5v71.9h-5z"/>
       <path class="st4" d="m5887.4 906.2h33.9v81.3h-33.9z"/>
       <path class="st4" d="m5921.3 737h5v71.9h-5z"/>
       <path class="st4" d="m5887.4 732.2h33.9v81.3h-33.9z"/>
       <path class="st4" d="m5981.7 438h6.4v85.6h-6.4z"/>
       <path class="st4" d="m5943.2 433.4h38.5v94.8h-38.5z"/>
       <path class="st4" d="m5981.7 209h6.4v85.6h-6.4z"/>
       <path class="st4" d="m5943.2 204.4h38.5v94.8h-38.5z"/>
       <path class="st4" d="m5712.7 42.1h85.7v6.4h-85.7z"/>
       <path class="st4" d="m5708.1 48.5h94.8v38.5h-94.8z"/>
       <path class="st4" d="m5483.7 42.1h85.7v6.4h-85.7z"/>
       <path class="st4" d="m5479.2 48.5h94.8v38.5h-94.8z"/>
       <path class="st4" d="m5254.8 42.1h85.7v6.4h-85.7z"/>
       <path class="st4" d="m5250.2 48.5h94.8v38.5h-94.8z"/>
       <path class="st4" d="m5065 209h6.4v85.7h-6.4z"/>
       <path class="st4" d="m5071.4 204.5h38.5v94.8h-38.5z"/>
       <path class="st4" d="m5064.8 437.9h6.4v85.7h-6.4z"/>
       <path class="st4" d="m5071.2 433.4h38.5v94.8h-38.5z"/>
       <path class="st4" d="m5131.9 714.5h-36.7v108.5h36.7v5.5h-42.2v-119.5h42.2z"/>
       <path class="st4" d="m5131.9 975.3h5v85.6h-5z"/>
       <path class="st4" d="m5136.8 970.6h28.9v95.1h-28.9z"/>
       <path class="st4" d="m5131.9 1152.5h5v85.6h-5z"/>
       <path class="st4" d="m5136.8 1147.8h28.9v95.1h-28.9z"/>
       <path class="st4" d="m5131.9 1329.6h5v85.6h-5z"/>
       <path class="st4" d="m5136.8 1324.9h28.9v95.1h-28.9z"/>
       <path class="st4" d="m5131.9 1509.6h5v58.2h-5z"/>
       <path class="st4" d="m5136.8 1504.9h28.9v67.6h-28.9z"/>
       <path class="st4" d="m4946.2 1575.6h71.9v4.9h-71.9z"/>
       <path class="st4" d="m4941.4 1580.5h81.4v28.9h-81.4z"/>
       <path class="st4" d="m4684.3 1424.5h71.9v4.9h-71.9z"/>
       <path class="st4" d="m4679.6 1429.4h81.3v28.9h-81.3z"/>
       <path class="st4" d="m4666 1424.5v-36.7h108.5v36.7h5.5v-42.2h-119.5v42.2z"/>
       <path class="st4" d="m4510.3 1424.5h71.9v4.9h-71.9z"/>
       <path class="st4" d="m4505.6 1429.4h81.3v28.9h-81.3z"/>
       <path class="st4" d="m4492 1424.5v-36.7h108.5v36.7h5.5v-42.2h-119.5v42.2z"/>
       <path class="st4" d="m4336.3 1424.5h71.9v4.9h-71.9z"/>
       <path class="st4" d="m4331.6 1429.4h81.3v28.9h-81.3z"/>
       <path class="st4" d="m4312.5 1424.5h5.5v-36.7h108.5v36.7h5.5v-42.2h-119.5z"/>
       <path class="st4" d="m4162.3 1424.5h71.9v4.9h-71.9z"/>
       <path class="st4" d="m4157.6 1429.4h81.3v28.9h-81.3z"/>
       <path class="st4" d="m4138.5 1424.5h5.5v-36.7h108.5v36.7h5.5v-42.2h-119.5z"/>
       <path class="st4" d="m3988.3 1424.5h71.9v4.9h-71.9z"/>
       <path class="st4" d="m3983.6 1429.4h81.3v28.9h-81.3z"/>
       <path class="st4" d="m3964.5 1424.5h5.5v-36.7h108.5v36.7h5.5v-42.2h-119.5z"/>
       <path class="st4" d="m3814.3 1424.5h71.9v4.9h-71.9z"/>
       <path class="st4" d="m3809.6 1429.4h81.3v28.9h-81.3z"/>
       <path class="st4" d="m3790.5 1424.5h5.5v-36.7h108.5v36.7h5.5v-42.2h-119.5z"/>
       <path class="st4" d="m3640.3 1424.5h71.9v4.9h-71.9z"/>
       <path class="st4" d="m3635.6 1429.4h81.3v28.9h-81.3z"/>
       <path class="st4" d="m3616.5 1424.5h5.5v-36.7h108.5v36.7h5.5v-42.2h-119.5z"/>
       <path class="st4" d="m3466.3 1424.5h71.9v4.9h-71.9z"/>
       <path class="st4" d="m3461.6 1429.4h81.3v28.9h-81.3z"/>
       <path class="st4" d="m3442.5 1424.5h5.5v-36.7h108.5v36.7h5.5v-42.2h-119.5z"/>
       <path class="st4" d="m3292.4 1424.5h71.9v4.9h-71.9z"/>
       <path class="st4" d="m3287.6 1429.4h81.3v28.9h-81.3z"/>
       <path class="st4" d="m3268.6 1424.5h5.5v-36.7h108.5v36.7h5.4v-42.2h-119.4z"/>
       <path class="st4" d="m3074.8 1355.6h49v5h-49z"/>
       <path class="st4" d="m3070.1 1360.6h58.4v25.8h-58.4z"/>
       <path class="st4" d="m2979.2 1355.6h71.9v5h-71.9z"/>
       <path class="st4" d="m2974.4 1360.6h81.3v25.9h-81.3z"/>
       <path class="st4" d="m2906.4 1355.6h49v5h-49z"/>
       <path class="st4" d="m2901.6 1360.6h58.4v25.8h-58.4z"/>
       <path class="st4" d="m2666 1424.5h71.9v4.9h-71.9z"/>
       <path class="st4" d="m2661.3 1429.4h81.3v28.9h-81.3z"/>
       <path class="st4" d="m2756.2 1424.5v-36.7h-108.5v36.7h-5.5v-42.2h119.5v42.2z"/>
       <path class="st4" d="m2492 1424.5h71.9v4.9h-71.9z"/>
       <path class="st4" d="m2487.3 1429.4h81.3v28.9h-81.3z"/>
       <path class="st4" d="m2582.2 1424.5v-36.7h-108.5v36.7h-5.5v-42.2h119.5v42.2z"/>
       <path class="st4" d="m2318 1424.5h71.9v4.9h-71.9z"/>
       <path class="st4" d="m2313.3 1429.4h81.3v28.9h-81.3z"/>
       <path class="st4" d="m2408.2 1424.5v-36.7h-108.5v36.7h-5.5v-42.2h119.5v42.2z"/>
       <path class="st4" d="m2144 1424.5h71.9v4.9h-71.9z"/>
       <path class="st4" d="m2139.3 1429.4h81.3v28.9h-81.3z"/>
       <path class="st4" d="m2234.2 1424.5v-36.7h-108.5v36.7h-5.5v-42.2h119.5v42.2z"/>
       <path class="st4" d="m1970 1424.1h71.9v4.9h-71.9z"/>
       <path class="st4" d="m1965.3 1429h81.3v28.9h-81.3z"/>
       <path class="st4" d="m2060.2 1424.1v-36.7h-108.5v36.7h-5.5v-42.2h119.5v42.2z"/>
       <path class="st4" d="m1796 1424.1h71.9v4.9h-71.9z"/>
       <path class="st4" d="m1791.3 1429h81.3v28.9h-81.3z"/>
       <path class="st4" d="m1886.2 1424.1v-36.7h-108.5v36.7h-5.5v-42.2h119.5v42.2z"/>
       <path class="st4" d="m1622 1424.1h71.9v4.9h-71.9z"/>
       <path class="st4" d="m1617.3 1429h81.3v28.9h-81.3z"/>
       <path class="st4" d="m1712.2 1424.1v-36.7h-108.5v36.7h-5.5v-42.2h119.5v42.2z"/>
       <path class="st4" d="m1448 1424.1h71.9v4.9h-71.9z"/>
       <path class="st4" d="m1443.3 1429h81.3v28.9h-81.3z"/>
       <path class="st4" d="m1538.2 1424.1v-36.7h-108.5v36.7h-5.5v-42.2h119.5v42.2z"/>
       <path class="st4" d="m1274 1424.1h71.9v4.9h-71.9z"/>
       <path class="st4" d="m1269.3 1429h81.3v28.9h-81.3z"/>
       <path class="st4" d="m1364.2 1424.1v-36.7h-108.5v36.7h-5.5v-42.2h119.5v42.2z"/>
       <path class="st4" d="m1012.1 1575.8h71.9v4.9h-71.9z"/>
       <path class="st4" d="m1007.4 1580.8h81.3v28.9h-81.3z"/>
       <path class="st4" d="m1102.3 1575.8v-36.6h-108.5v36.6h-5.5v-42.1h119.5v42.1z"/>
       <path class="st4" d="m893.4 1336.5h4.9v71.9h-4.9z"/>
       <path class="st4" d="m864.5 1331.8h28.9v81.3h-28.9z"/>
       <path class="st4" d="m898.3 1426.7h36.7v-108.5h-36.7v-5.5h42.2v119.5h-42.2z"/>
       <path class="st4" d="m893.4 1509.6h5v58.2h-5z"/>
       <path class="st4" d="m864.5 1504.9h28.9v67.6h-28.9z"/>
       <path class="st4" d="m935 1575.6v-91.2h-36.7v-5.5h42.2v96.7z"/>
       <path class="st4" d="m893.4 1159.3h4.9v71.9h-4.9z"/>
       <path class="st4" d="m864.5 1154.6h28.9v81.3h-28.9z"/>
       <path class="st4" d="m898.3 1249.5h36.7v-108.5h-36.7v-5.5h42.2v119.5h-42.2z"/>
       <path class="st4" d="m893.4 982.1h4.9v71.9h-4.9z"/>
       <path class="st4" d="m864.5 977.4h28.9v81.3h-28.9z"/>
       <path class="st4" d="m898.3 1072.3h36.7v-108.5h-36.7v-5.5h42.2v119.5h-42.2z"/>
       <path class="st4" d="m3205.4 2180h95.1v32.8h-95.1z"/>
       <path class="st4" d="m3210.1 2212.7h85.6v6.6h-85.6z"/>
       <path class="st4" d="m2979.1 2180.3h95.1v32.8h-95.1z"/>
       <path class="st4" d="m2983.8 2213.1h85.6v6.6h-85.6z"/>
       <path class="st4" d="m2749.4 2180.3h95.1v32.8h-95.1z"/>
       <path class="st4" d="m2754.1 2213.1h85.6v6.6h-85.6z"/>
       <path class="st4" d="m108.9 731.2h34v81.3h-34z"/>
       <path class="st4" d="m103.9 735.9h5v71.9h-5z"/>
      </g>
     </g>
    </g>
   </g>
  </g>
 </g>
</svg>
